<?xml version="1.0" standalone="no"?>
<!DOCTYPE svg PUBLIC "-//W3C//DTD SVG 20010904//EN"
 "http://www.w3.org/TR/2001/REC-SVG-20010904/DTD/svg10.dtd">
<svg version="1.0" xmlns="http://www.w3.org/2000/svg"
 width="320.000000pt" height="320.000000pt" viewBox="0 0 320.000000 320.000000"
 preserveAspectRatio="xMidYMid meet">
<metadata>
Created by potrace 1.11, written by Peter Selinger 2001-2013
</metadata>
<g transform="translate(0.000000,320.000000) scale(0.100000,-0.100000)"
fill="#000000" stroke="none">
<path d="M618 2782 c-20 -29 -19 -2341 1 -2366 12 -14 41 -16 226 -16 189 0
214 2 227 18 14 15 16 77 16 460 0 391 2 446 16 461 15 16 45 18 353 18 306 0
505 7 522 17 3 2 22 7 41 10 203 33 401 167 491 333 128 236 106 596 -47 800
-39 51 -120 123 -176 157 -89 53 -139 72 -303 112 -16 4 -328 9 -692 11 -643
4 -662 3 -675 -15z m1282 -406 c147 -36 214 -132 211 -303 -3 -142 -42 -213
-148 -265 l-68 -33 -381 -2 c-353 -3 -384 -1 -404 15 -21 17 -22 22 -22 290
-1 249 1 274 17 292 18 20 29 20 394 17 207 -3 387 -7 401 -11z"/>
</g>
</svg>
