<?xml version="1.0" encoding="utf-8"?>
<!-- Generator: Adobe Illustrator 18.1.1, SVG Export Plug-In . SVG Version: 6.00 Build 0)  -->
<svg version="1.1" id="Layer_1" xmlns="http://www.w3.org/2000/svg" xmlns:xlink="http://www.w3.org/1999/xlink" x="0px" y="0px"
	 viewBox="0 0 130 81" enable-background="new 0 0 130 81" xml:space="preserve">
<g>
	<g>
		<path fill="#db1d0e" d="M30,33c1.2-6-2.3-10.6-4.9-12.9c-1.8-1.6-1.2-3.6-3-6.8c-0.2,2.5-1.2,3.4-2.1,3.4c-2.1,0-2.7-8-4.8-10.6
			c0.3,2.7-1.2,4.6-2.8,4.2C9.4,9.5,6,3.6,6.4,0C3.7,3.7,6.3,14.1,3.6,14.6c-1.5,0.3-2.6-2-2.8-5c-2.2,5.8,1,10.3,2,13.5
			c1.4,4.2,1.9,7.1,1.8,8.8c0,3-2.2,1.6-4.3,1.3c2.1,1.3,2.8,3.3,4.4,6.3c4.2,9.1,11.9,12.1,19.6,6.3C10.9,48.4,6.8,40.5,6.2,31
			c4.6,10.1,12.9,7.7,12.9,7.7c-7.8-1.8-13.6-8.3-13.6-18.2c0-2.7,1.5-7.5,1.7-8.5c0.2-1.2,0.2-3-0.8-4.5c3.8,3.2,3.4,8.2,3.5,12.7
			c0.1,4.3,1.5,8.1,5.2,10c-4-8.3,1.6-10.5-3-17.2c5.8,2.6,6.5,8.6,7.1,13.2c0.6,4.2,2.7,5.3,3.4,4.9c2.5-1.3-0.9-10-2.7-11.8
			C25.5,21.7,28.6,28.5,30,33L30,33z"/>
		<path fill="#db1d0e" d="M22.6,37.3c0.6,0.6,1.1,3.4-0.1,4.6c-1.3,1.3-4,1.2-6.1,0.6c0.3,0.5,2.3,1.5,3.7,1.7
			c1.8,0.2,3.8-0.1,5.4-2.2c2.7-3.6,3.3-4.5,3.1-6.1c-0.1-0.9-0.8-2.8-1.2-3.3c0.2,1-0.1,3-0.8,3.9C25.9,37.2,23.8,37.6,22.6,37.3z"
			/>
	</g>
	<g>
		<path fill="#db1d0e" d="M53.4,36.3c1,0,1.2,0.5,1.2,1.4c0.1,2.7,0.4,28,0.4,41.1c0,1.1-0.4,1.4-1.4,1.4h-7.3c-0.6,0-1.8,0-1.8-1.5
			c0,0,0.2-19.5,0-32.9c0-0.6-0.9-0.8-1.9-0.8c-0.5,0-1.4,0.6-1.8,1.2C36.3,56.2,26,78.7,26,78.7c-0.2,0.3-0.6,1.4-1.9,1.4h-6.9
			c-0.9,0-1.2-0.4-1.2-1.5c0-0.9-0.4-2.5,0.4-3.7c0.9-1.6,17.2-35.3,18.8-38.2c0.3-0.7,0.8-0.5,1.5-0.5H53.4z M77.5,71.8
			c5.3,0,7.4-3.8,7.4-8.2l-0.2-26c0-1.4,1.2-1.3,1.9-1.3H94c1,0,1.4,0.3,1.4,1.3c-0.1,4.2,0,16.9,0,26.1c0,9.1-5.6,17.3-19.1,17.3
			c-8.4,0-16-4.6-16-17.8V38c0-1.5,0.6-1.7,1.5-1.7h8.7v26.9C70.5,69.8,74.3,71.8,77.5,71.8z M111.3,53.7c0.1,1.3,0.4,1.7,1.6,1.7
			l14.4,0.1c1,0,1.3,0.4,1.3,1.4V63c0,1-0.6,1.3-1.5,1.3c-6,0-10.5,0.1-14.6,0.1c-0.3,0-1.1,0.3-1.1,1.1c0,4.2-0.2,10.4-0.2,13.2
			c0,0.8-0.4,1.5-1.2,1.5h-7.4c-0.6,0-1.8,0-1.8-1.5c0,0,0.3-9.2,0.3-20.3c0-9.1-0.2-20.4-0.2-20.4c0-1.5,0.7-1.9,1.6-1.9
			c11.1,0,19.9,0.1,25.8,0.1c0.9,0,1.7,0.4,1.7,1.3v6.5c0,1.1-0.5,1.4-1.5,1.4l-15.5,0.1c-1.1,0-1.5,0.4-1.6,1.7
			C111.2,48.4,111.2,52.5,111.3,53.7z"/>
	</g>
</g>
</svg>
