<?xml version="1.0" standalone="no"?>
<!DOCTYPE svg PUBLIC "-//W3C//DTD SVG 1.1//EN" "http://www.w3.org/Graphics/SVG/1.1/DTD/svg11.dtd" >
<svg xmlns="http://www.w3.org/2000/svg">
<metadata>
This is a custom SVG webfont generated by Font Squirrel.
Copyright   : Copyright c 2008 by NORM Dimitri Bruni  Manuel Krebs All rights reserved
Designer    : NORM
Foundry     : NORM Dimitri Bruni  Manuel Krebs
Foundry URL : www.lineto.com
</metadata>
<defs>
<font id="ReplicaLightItalic" horiz-adv-x="1187" >
<font-face units-per-em="2048" ascent="1597" descent="-451" />
<missing-glyph horiz-adv-x="532" />
<glyph unicode=" "  horiz-adv-x="532" />
<glyph unicode="&#x09;" horiz-adv-x="532" />
<glyph unicode="&#xa0;" horiz-adv-x="532" />
<glyph unicode="!" horiz-adv-x="655" d="M158 20l28 164l21 21h125l20 -21l-28 -164l-21 -20h-125zM264 389l64 471l96 553l20 21h84l21 -21l-96 -553l-105 -471l-20 -20h-43z" />
<glyph unicode="&#x22;" horiz-adv-x="778" d="M215 819l104 594l21 21h84l20 -21l-104 -594l-21 -20h-83zM545 819l104 594l21 21h84l20 -21l-104 -594l-21 -20h-84z" />
<glyph unicode="#" horiz-adv-x="1249" d="M47 430l10 62l21 20h184l21 20l168 369l-21 21h-129l-20 20l10 62l20 20h185l20 20l168 369l21 21h67l21 -21l-11 -61l-137 -308l21 -20h286l21 20l168 369l20 21h68l20 -21l-10 -61l-137 -308l20 -20h131l21 -20l-10 -62l-21 -20h-186l-21 -21l-168 -369l21 -20h131 l20 -20l-10 -62l-20 -20h-187l-20 -21l-168 -369l-21 -20h-67l-21 20l13 62l135 307l-21 21h-286l-21 -21l-168 -369l-20 -20h-68l-20 20l12 62l135 307l-20 21h-129zM412 532l20 -20h287l20 20l168 369l-20 21h-287l-20 -21z" />
<glyph unicode="$" horiz-adv-x="1208" d="M59 350q0 41 9 80l20 21h84l21 -21q-8 -39 -9 -80q0 -238 295 -264l21 20l104 578l-22 23q-180 57 -272.5 138t-92.5 220q0 186 139.5 285.5t364.5 103.5l20 21l23 122l20 21h64l20 -21l-22 -133l20 -20q143 -20 231.5 -99t88.5 -225q0 -41 -8 -76l-21 -20h-84l-20 20 q8 35 8 76q0 190 -219 226l-21 -21l-96 -537l23 -22q178 -57 270 -136t92 -220q0 -201 -148.5 -309.5t-361.5 -120.5l-20 -21l-23 -123l-20 -20h-64l-20 20l22 129l-20 21q-195 18 -295.5 113t-100.5 251zM344 1065q0 -100 60.5 -154.5t201.5 -101.5l23 22l88 500l-21 19 q-352 -17 -352 -285zM604 106l21 -20q90 6 166.5 39t134 107.5t57.5 177.5q0 100 -60.5 151t-203.5 101l-19 -19z" />
<glyph unicode="%" horiz-adv-x="1761" d="M168 973q0 190 102.5 335.5t290.5 145.5q135 0 209 -83t74 -212q0 -121 -39 -227.5t-131 -181t-221 -74.5q-137 0 -211 83t-74 214zM293 973q0 -195 164 -195q127 0 194.5 119t67.5 262q0 193 -162 193q-127 0 -195.5 -117t-68.5 -262zM322 20l12 62l1063 1331l41 21h51 l20 -21l-10 -61l-1065 -1332l-41 -20h-51zM987 276q0 190 102.5 336t290.5 146q135 0 209 -83t74 -212q0 -121 -39 -227.5t-131 -181t-221 -74.5q-137 0 -211 82.5t-74 213.5zM1112 276q0 -195 164 -194q127 0 194.5 118.5t67.5 262.5q0 193 -162 192q-127 0 -195.5 -117 t-68.5 -262z" />
<glyph unicode="&#x26;" horiz-adv-x="1474" d="M139 362q0 182 108.5 291t289.5 178l2 21q-106 131 -107 242q0 154 103.5 257t265.5 103q145 0 211.5 -81t66.5 -183q0 -248 -334 -391l-2 -21l330 -403h21q100 154 120 403l23 21h82l18 -21q-18 -287 -166 -499l-2 -21l148 -176l-12 -62l-21 -20h-22l-41 20l-125 148 h-21q-199 -188 -495 -188q-199 0 -320 111t-121 271zM262 362q0 -117 87 -198.5t231 -81.5q264 0 426 174l2 20l-379 463h-41q-156 -55 -241 -142.5t-85 -234.5zM555 1094q0 -80 100 -211h33q131 57 199.5 125.5t68.5 175.5q0 70 -38.5 119t-118.5 49q-106 0 -175 -72.5 t-69 -185.5z" />
<glyph unicode="'" horiz-adv-x="450" d="M215 819l104 594l21 21h84l20 -21l-104 -594l-21 -20h-83z" />
<glyph unicode="(" horiz-adv-x="798" d="M111 129q0 98 49 383l41 227q14 76 47 166t54.5 127t89 111t123.5 120l185 150l41 21h31l21 -21l-11 -61l-165 -134q-48 -40 -111.5 -107t-83 -102.5t-51 -118.5t-46 -159t-38.5 -219q-49 -285 -49 -383q0 -123 48 -205t199 -252l-10 -61l-20 -21h-13l-41 21 q-168 190 -229 292.5t-61 225.5z" />
<glyph unicode=")" horiz-adv-x="798" d="M6 -389l10 61l165 134q48 40 111.5 107t83 102.5t51.5 118.5t46 159l39 219q49 285 49 383q0 123 -48 205t-200 252l11 61l20 21h12l41 -21q168 -190 229.5 -292.5t61.5 -225.5q0 -98 -49 -383l-41 -227q-14 -76 -47 -166t-54.5 -127t-89 -111t-123.5 -120l-186 -150 l-41 -21h-30z" />
<glyph unicode="*" horiz-adv-x="1208" d="M248 983v21l20 20h328v20l-225 226v20l20 21h21l225 -226h20v328l21 21h20l21 -21v-328h20l226 226h20l21 -21v-20l-226 -226v-20h328l20 -20v-21l-20 -20h-328v-21l226 -225v-21l-21 -20h-20l-226 225h-20v-328l-21 -20h-20l-21 20v328h-20l-225 -225h-21l-20 20v21 l225 225v21h-328z" />
<glyph unicode="+" horiz-adv-x="1208" d="M119 492l10 61l21 20h397l20 21l68 389l20 21h64l20 -21l-67 -389l20 -21h381l21 -20l-11 -61l-20 -21h-397l-21 -20l-67 -390l-21 -20h-63l-21 20l68 390l-21 20h-381z" />
<glyph unicode="," horiz-adv-x="491" d="M16 -184l2 20l105 123l4 21l-14 20h-17l-20 20l28 164l21 21h125l20 -21l-32 -184l-35 -66l-97 -98l-40 -20h-50z" />
<glyph unicode="-" horiz-adv-x="798" d="M119 492l10 61l21 20h512l20 -20l-10 -61l-21 -21h-512z" />
<glyph unicode="." horiz-adv-x="491" d="M76 20l28 164l21 21h125l20 -21l-28 -164l-21 -20h-125z" />
<glyph unicode="/" horiz-adv-x="1044" d="M-6 20l12 62l1004 1331l41 21h49l20 -21l-10 -61l-1006 -1332l-41 -20h-49z" />
<glyph unicode="0" horiz-adv-x="1146" d="M88 446q0 125 17.5 253t64.5 266.5t115.5 245t181.5 175t254 68.5q193 0 300 -116.5t107 -352.5q0 -125 -17 -253t-64.5 -266t-116 -243.5t-181 -174t-253.5 -68.5q-195 0 -301.5 115t-106.5 351zM213 446q0 -365 283 -364q139 0 244.5 94t158.5 240.5t79 290t26 278.5 q0 367 -283 367q-113 0 -204 -64.5t-146.5 -162t-92 -223.5t-51 -239t-14.5 -217z" />
<glyph unicode="1" horiz-adv-x="716" d="M166 1004l14 81l385 328l41 21h84l21 -21l-246 -1393l-21 -20h-84l-20 20l219 1237h-20l-322 -274h-31z" />
<glyph unicode="2" horiz-adv-x="1085" d="M-6 20l14 82l29 41l475 369l138 110q42 34 110.5 101.5t98.5 116.5t54.5 121.5t24.5 150.5q0 102 -62.5 171t-195.5 69q-180 0 -271.5 -97.5t-113.5 -230.5l-21 -20h-81l-21 20q35 197 162 313.5t346 116.5q184 0 283.5 -97t99.5 -245q0 -129 -55.5 -242.5t-135 -195.5 t-208.5 -182l-476 -369l-4 -21h723l21 -20l-13 -62l-20 -20h-879z" />
<glyph unicode="3" horiz-adv-x="1085" d="M33 338q0 27 4 51l20 21h84l21 -21q-4 -25 -4 -51q0 -109 73.5 -182.5t225.5 -73.5q176 0 299 139t123 324q0 123 -72 188.5t-184 65.5q-63 0 -124 -20.5t-89 -41.5l-27 -20h-16l-21 20l14 82l564 492l4 20h-637l-21 21l11 61l20 21h778l21 -21l-15 -82l-26 -41 l-436 -383l-5 -20q31 6 62 6q139 0 232.5 -101.5t93.5 -246.5q0 -229 -156 -397t-393 -168q-195 0 -309.5 101t-114.5 257z" />
<glyph unicode="4" horiz-adv-x="1085" d="M27 430l14 82l27 41l847 860l41 21h103l20 -21l-245 -1393l-21 -20h-84l-20 20l65 369l-20 21h-707zM197 512h581l21 20l129 721h-21l-708 -721z" />
<glyph unicode="5" horiz-adv-x="1146" d="M98 338q0 31 4 51l21 21h82l20 -21q-4 -20 -4 -51q0 -115 64.5 -185.5t212.5 -70.5q209 0 319.5 151.5t110.5 366.5q0 131 -66.5 206t-204.5 75q-117 0 -204.5 -51.5t-135.5 -133.5l-41 -20h-79l-21 20l166 717l23 21h755l21 -21l-11 -61l-20 -21h-657l-21 -20l-102 -451 h20q129 123 318 123q186 0 286.5 -102.5t100.5 -280.5q0 -258 -146.5 -439t-410.5 -181q-207 0 -303.5 100t-96.5 258z" />
<glyph unicode="6" horiz-adv-x="1126" d="M90 387q0 127 38 330t95 356q150 381 518 381q199 0 294 -89t95 -228q0 -20 -2 -31l-20 -21h-84l-20 21q2 10 2 31q0 96 -62.5 155.5t-202.5 59.5q-76 0 -140 -24.5t-108 -59.5t-81 -91.5t-58.5 -102.5t-40 -112.5t-25.5 -99.5t-16 -84h21q47 63 140 113.5t229 50.5 q170 0 278.5 -100.5t108.5 -276.5q0 -231 -160 -408t-391 -177q-174 0 -291 103t-117 304zM209 387q0 -137 78 -221t211 -84q180 0 302 146.5t122 336.5q0 127 -72 201t-199 74q-188 0 -315 -128t-127 -325z" />
<glyph unicode="7" horiz-adv-x="1003" d="M143 20l15 82l790 1209l4 20h-702l-21 21l11 61l20 21h819l21 -21l-19 -102l-841 -1291l-41 -20h-35z" />
<glyph unicode="8" horiz-adv-x="1105" d="M53 336q0 160 85 272.5t233 151.5l4 20q-51 18 -104.5 88t-53.5 168q0 186 141.5 302t341.5 116q188 0 289 -90t101 -231q0 -125 -70 -218.5t-195 -138.5l-4 -20q70 -23 129.5 -94.5t59.5 -194.5q0 -211 -152.5 -349t-380.5 -138q-209 0 -316.5 105.5t-107.5 250.5z M178 336q0 -109 74 -181.5t225 -72.5q172 0 290 107.5t118 277.5q0 125 -79 187.5t-218 62.5q-168 0 -289 -103.5t-121 -277.5zM342 1036q0 -88 61.5 -152.5t202.5 -64.5q145 0 253 85t108 229q0 96 -64.5 157.5t-202.5 61.5q-145 0 -251.5 -85.5t-106.5 -230.5z" />
<glyph unicode="9" horiz-adv-x="1126" d="M111 297q0 20 2 31l20 20h84l21 -20q-2 -10 -2 -31q0 -96 58 -155.5t183 -59.5q344 0 457 594h-21q-141 -164 -360 -164q-188 0 -292.5 109.5t-104.5 279.5q0 225 155.5 389t388.5 164q186 0 300 -94t114 -283q0 -125 -41 -343t-100 -372q-150 -383 -514 -382 q-166 0 -257 91t-91 226zM281 901q0 -129 73.5 -208t214.5 -79q180 0 301 137.5t121 325.5q0 125 -71.5 200t-219.5 75q-176 0 -297.5 -133.5t-121.5 -317.5z" />
<glyph unicode=":" horiz-adv-x="491" d="M76 20l28 164l21 21h125l20 -21l-28 -164l-21 -20h-125zM219 840l29 164l20 20h125l21 -20l-29 -164l-20 -21h-125z" />
<glyph unicode=";" horiz-adv-x="491" d="M16 -184l2 20l105 123l4 21l-14 20h-17l-20 20l28 164l21 21h125l20 -21l-32 -184l-35 -66l-97 -98l-40 -20h-50zM219 840l29 164l20 20h125l21 -20l-29 -164l-20 -21h-125z" />
<glyph unicode="&#x3c;" horiz-adv-x="1126" d="M139 502l6 37l29 41l848 444h68l20 -20l-8 -41l-27 -41l-766 -390l-6 -40l627 -390l14 -41l-8 -41l-21 -20h-43l-720 461z" />
<glyph unicode="=" horiz-adv-x="1228" d="M127 307l10 62l21 20h860l20 -20l-10 -62l-20 -20h-861zM193 676l10 61l20 21h860l21 -21l-10 -61l-21 -21h-860z" />
<glyph unicode="&#x3e;" d="M76 20l8 41l27 41l766 390l6 40l-627 390l-14 41l8 41l20 20h43l721 -461l13 -41l-7 -37l-28 -41l-848 -444h-68z" />
<glyph unicode="?" horiz-adv-x="1146" d="M254 1024q76 430 467 430q176 0 272.5 -85t96.5 -228q0 -109 -41 -195t-98.5 -139t-164 -131t-141.5 -131t-55 -176l-21 -21h-84l-20 21q27 154 74 224.5t188 172.5q127 92 182.5 168t55.5 207q0 92 -57.5 151.5t-186.5 59.5q-285 0 -342 -328l-21 -20h-84zM383 20 l29 164l20 21h125l21 -21l-29 -164l-21 -20h-125z" />
<glyph unicode="@" horiz-adv-x="1843" d="M111 369q0 256 125.5 478t342 353t468.5 131q311 0 498.5 -188.5t187.5 -487.5q0 -104 -21.5 -207.5t-65.5 -196.5t-122 -151.5t-181 -58.5q-180 0 -227 143h-20q-102 -123 -267 -123q-143 0 -226 85t-83 241q0 225 115 400.5t317 175.5q76 0 140.5 -28t95.5 -75h20 l31 62l21 20h63l20 -20l-104 -590q-8 -43 -8 -76q0 -113 117 -113q72 0 126 58.5t81.5 145.5t41 166t13.5 142q0 250 -150.5 412t-412.5 162q-229 0 -419 -128t-292.5 -324.5t-102.5 -407.5q0 -250 149.5 -412t412.5 -162q193 0 366 103h17l20 -21l-10 -61 q-143 -123 -393 -123q-315 0 -499.5 190.5t-184.5 485.5zM643 387q0 -109 49 -166t137 -57q109 0 188 81t110.5 182t31.5 202q0 117 -56 174t-151 57q-80 0 -142 -49t-97 -125t-52.5 -153.5t-17.5 -145.5z" />
<glyph unicode="A" horiz-adv-x="1249" d="M-47 20l12 62l746 1331l20 21h103l20 -21l279 -1331l-13 -62l-20 -20h-56l-20 20l-78 369l-20 21h-594l-62 -21l-209 -369l-20 -20h-68zM356 532l21 -20h512l20 20l-139 717h-20z" />
<glyph unicode="B" horiz-adv-x="1269" d="M76 20l246 1393l20 21h520q180 0 285.5 -80t105.5 -234q0 -266 -245 -362l-4 -21q78 -25 126 -95.5t48 -170.5q0 -215 -140.5 -343t-371.5 -128h-570zM219 123l21 -21h426q174 0 281.5 100.5t107.5 268.5q0 109 -75 167t-210 58h-432l-21 -20zM342 819l20 -20h408 q164 0 262 85t98 236q0 211 -268 211h-413l-21 -20z" />
<glyph unicode="C" horiz-adv-x="1372" d="M100 553q0 137 30 267t93.5 245t151.5 202t213 137t270 50q229 0 375.5 -109.5t146.5 -295.5v-25l-20 -20h-84l-21 20v25q0 141 -109.5 222t-287.5 81q-201 0 -348.5 -118t-216 -296t-68.5 -385q0 -223 122 -347t327 -124q184 0 309 90t168 258l20 21h84l21 -21 q-51 -221 -207 -335.5t-395 -114.5q-260 0 -417 151.5t-157 421.5z" />
<glyph unicode="D" horiz-adv-x="1331" d="M76 20l246 1393l20 21h371q295 0 444.5 -145.5t149.5 -387.5q0 -190 -45 -349t-138.5 -285t-250 -196.5t-365.5 -70.5h-412zM219 123l21 -21h268q176 0 309 62.5t212 174.5t117 253t38 309q0 195 -118 312.5t-353 117.5h-264l-21 -20z" />
<glyph unicode="E" d="M76 20l246 1393l20 21h881l20 -21l-10 -61l-21 -21h-763l-21 -20l-90 -512l20 -21h709l20 -20l-12 -62l-20 -20h-721l-21 -21l-94 -532l21 -21h749l21 -20l-13 -62l-20 -20h-881z" />
<glyph unicode="F" horiz-adv-x="1126" d="M76 20l246 1393l20 21h840l20 -21l-10 -61l-21 -21h-722l-21 -20l-92 -533l20 -20h666l20 -21l-10 -61l-20 -21h-682l-21 -20l-108 -615l-21 -20h-84z" />
<glyph unicode="G" horiz-adv-x="1433" d="M100 549q0 168 54.5 328.5t154 289.5t255 208t341.5 79q250 0 373 -123t123 -307l-21 -20h-82l-20 20q0 147 -91 237.5t-282 90.5q-205 0 -364.5 -121t-238.5 -302t-79 -380q0 -215 119 -341t340 -126q133 0 228.5 41t152.5 117.5t87 158.5t50 195l-20 20h-463l-21 21 l11 61l20 21h594l20 -21l-118 -676l-21 -20h-43l-20 20l6 144h-21q-78 -88 -179 -136t-263 -48q-266 0 -424 149.5t-158 419.5z" />
<glyph unicode="H" horiz-adv-x="1413" d="M76 20l246 1393l20 21h84l20 -21l-108 -614l20 -21h795l21 21l108 614l21 21h83l21 -21l-246 -1393l-20 -20h-84l-21 20l113 635l-21 21h-794l-21 -21l-112 -635l-21 -20h-84z" />
<glyph unicode="I" horiz-adv-x="450" d="M76 20l246 1393l20 21h84l20 -21l-245 -1393l-21 -20h-84z" />
<glyph unicode="J" horiz-adv-x="1003" d="M6 291q0 37 8 78l21 20h82l20 -20q-8 -41 -8 -78q0 -92 60.5 -150.5t175.5 -58.5q276 0 325 287l184 1044l21 21h84l20 -21l-184 -1044q-29 -172 -137.5 -280.5t-312.5 -108.5q-186 0 -272.5 94t-86.5 217z" />
<glyph unicode="K" horiz-adv-x="1249" d="M74 20l245 1393l21 21h84l20 -21l-131 -745h21l876 745l41 21h52l20 -21l-10 -61l-625 -533l-4 -20l449 -717l-13 -62l-20 -20h-31l-41 20l-434 701h-21l-270 -229l-29 -41l-75 -431l-21 -20h-84z" />
<glyph unicode="L" horiz-adv-x="1064" d="M76 20l246 1393l20 21h84l20 -21l-227 -1290l21 -21h708l21 -20l-13 -62l-20 -20h-840z" />
<glyph unicode="M" horiz-adv-x="1781" d="M76 20l246 1393l20 21h139l21 -21l307 -1249h20l752 1249l21 21h153l21 -21l-246 -1393l-21 -20h-84l-20 20l211 1188h-21l-721 -1188l-20 -20h-102l-21 20l-299 1188h-20l-211 -1188l-21 -20h-84z" />
<glyph unicode="N" horiz-adv-x="1454" d="M76 20l246 1393l20 21h92l41 -21l615 -1208h20l213 1208l20 21h84l21 -21l-246 -1393l-20 -20h-92l-41 20l-615 1209h-20l-213 -1209l-21 -20h-84z" />
<glyph unicode="O" horiz-adv-x="1474" d="M106 553q0 166 47.5 322.5t136.5 287.5t238.5 211t337.5 80q279 0 427.5 -153.5t148.5 -419.5q0 -166 -47 -323t-136.5 -288t-239 -210.5t-337.5 -79.5q-279 0 -427.5 153.5t-148.5 419.5zM229 553q0 -219 117 -345t336 -126q158 0 283 70.5t200.5 186.5t114.5 255 t39 287q0 219 -117 345t-336 126q-158 0 -282.5 -71t-200.5 -186.5t-115 -255t-39 -286.5z" />
<glyph unicode="P" horiz-adv-x="1269" d="M74 20l245 1393l21 21h600q188 0 289.5 -87t101.5 -239q0 -221 -141 -337t-387 -116h-475l-21 -20l-108 -615l-21 -20h-84zM334 778l20 -20h449q403 0 403 350q0 223 -266 223h-494l-20 -20z" />
<glyph unicode="Q" horiz-adv-x="1474" d="M106 553q0 166 47.5 322.5t136.5 287.5t238.5 211t337.5 80q279 0 427.5 -153.5t148.5 -419.5q0 -193 -62.5 -374t-181.5 -310l-4 -19l82 -96l-12 -62l-21 -20h-49l-86 102h-18q-172 -123 -408 -122q-279 0 -427.5 153.5t-148.5 419.5zM229 553q0 -219 117 -345t336 -126 q193 0 336 104l4 21l-166 203l-41 20h-233l-21 21l12 61l21 20h285l41 -20l186 -225h18q96 113 145.5 270.5t49.5 323.5q0 219 -117 345t-336 126q-158 0 -282.5 -71t-200.5 -186.5t-115 -255t-39 -286.5z" />
<glyph unicode="R" horiz-adv-x="1310" d="M76 20l246 1393l20 21h600q186 0 288.5 -88.5t102.5 -237.5q0 -209 -125 -323.5t-344 -129.5l-4 -20l252 -553l-12 -62l-21 -20h-28l-41 20l-281 615l-41 20h-358l-21 -20l-108 -615l-21 -20h-84zM336 778l20 -20h449q403 0 403 350q0 223 -266 223h-493l-21 -20z" />
<glyph unicode="S" horiz-adv-x="1208" d="M59 350q0 41 9 80l20 21h84l21 -21q-8 -39 -9 -80q0 -268 375 -268q172 0 298 82t126 246q0 115 -81 169t-288 117q-199 59 -298 141.5t-99 227.5q0 190 145.5 289.5t378.5 99.5q201 0 323 -81t122 -253q0 -41 -8 -76l-21 -20h-84l-20 20q8 35 8 76q0 231 -320 232 q-80 0 -146.5 -13.5t-125.5 -45t-92 -89t-33 -139.5q0 -115 79 -170t286 -117q201 -61 301 -141t100 -227q0 -209 -161 -319.5t-392 -110.5q-244 0 -371 98t-127 272z" />
<glyph unicode="T" d="M186 1352l11 61l20 21h1067l21 -21l-11 -61l-20 -21h-459l-20 -20l-228 -1291l-20 -20h-84l-21 20l228 1291l-21 20h-442z" />
<glyph unicode="U" horiz-adv-x="1392" d="M154 381q0 66 10 127l158 905l20 21h84l20 -21l-157 -905q-10 -61 -10 -127q0 -143 85 -221t244 -78q233 0 345 106.5t151 325.5l158 899l20 21h84l20 -21l-157 -899q-47 -264 -187.5 -399t-433.5 -135q-215 0 -334.5 108.5t-119.5 292.5z" />
<glyph unicode="V" horiz-adv-x="1290" d="M209 1352l10 61l21 21h53l20 -21l252 -1249h21l690 1249l20 21h70l20 -21l-10 -61l-747 -1332l-21 -20h-102l-21 20z" />
<glyph unicode="W" horiz-adv-x="1863" d="M227 1352l11 61l20 21h59l21 -21l115 -1188h20l537 1188l20 21h107l20 -21l119 -1188h20l533 1188l20 21h72l21 -21l-11 -61l-604 -1332l-20 -20h-105l-20 20l-115 1209h-20l-541 -1209l-21 -20h-104l-21 20z" />
<glyph unicode="X" horiz-adv-x="1290" d="M-27 20l13 62l626 666l4 20l-366 584l10 61l21 21h26l41 -21l342 -553h21l520 553l41 21h53l21 -21l-11 -61l-575 -602l-4 -21l397 -647l-12 -62l-21 -20h-26l-41 20l-371 615h-20l-570 -615l-41 -20h-57z" />
<glyph unicode="Y" horiz-adv-x="1146" d="M209 1352l10 61l21 21h51l20 -21l281 -676h20l518 676l41 21h52l20 -21l-10 -61l-582 -758l-102 -574l-21 -20h-84l-20 20l102 574z" />
<glyph unicode="Z" d="M14 20l15 82l28 41l971 1168l4 20h-741l-21 21l11 61l20 21h881l20 -21l-14 -82l-27 -41l-973 -1167l-4 -21h805l21 -20l-13 -62l-20 -20h-942z" />
<glyph unicode="[" horiz-adv-x="675" d="M4 -389l318 1802l20 21h307l21 -21l-11 -61l-20 -21h-190l-21 -20l-281 -1598l21 -20h174l20 -21l-10 -61l-20 -21h-307z" />
<glyph unicode="\" horiz-adv-x="1044" d="M229 1352l11 61l20 21h47l21 -21l559 -1331l-13 -62l-20 -20h-47l-21 20z" />
<glyph unicode="]" horiz-adv-x="675" d="M4 -389l10 61l21 21h190l21 20l280 1598l-20 20h-174l-21 21l11 61l20 21h307l21 -21l-318 -1802l-20 -21h-307z" />
<glyph unicode="^" d="M139 492l11 61l540 860l21 21h82l20 -21l238 -860l-11 -61l-20 -21h-35l-41 21l-199 737h-40l-457 -737l-41 -21h-47z" />
<glyph unicode="_" d="M-25 -82l13 62l20 20h983l21 -20l-13 -62l-20 -20h-983z" />
<glyph unicode="`" horiz-adv-x="1024" d="M403 1372l7 41l20 21h55l41 -21l148 -215l-6 -31l-21 -20h-20l-41 20z" />
<glyph unicode="a" horiz-adv-x="1085" d="M47 385q0 119 34 233.5t98.5 211t171 155.5t237.5 59q121 0 196.5 -50t98.5 -120h20l43 130l21 20h61l21 -20l-175 -984l-20 -20h-59l-21 20v117h-20q-45 -68 -127 -112.5t-191 -44.5q-180 0 -284.5 107.5t-104.5 297.5zM172 385q0 -143 68.5 -223t195.5 -80 q131 0 229.5 88t142.5 212t44 257q0 143 -68.5 223t-195.5 80q-131 0 -229.5 -88t-142.5 -212t-44 -257z" />
<glyph unicode="b" horiz-adv-x="1085" d="M35 20l246 1393l20 21h84l21 -21l-95 -532h21q111 164 334 163q182 0 277 -109.5t95 -287.5q0 -117 -32.5 -230.5t-95 -214t-170 -161.5t-242.5 -61q-127 0 -200 47t-95 116h-21l-43 -123l-20 -20h-64zM233 375q0 -143 69 -218t196 -75q135 0 233 89t140 214t42 262 q0 295 -264 295q-135 0 -233.5 -89t-140.5 -214t-42 -264z" />
<glyph unicode="c" horiz-adv-x="1024" d="M47 387q0 168 61.5 314.5t193.5 244.5t306 98t280.5 -87t106.5 -228l-2 -33l-20 -20h-84l-21 20q2 16 2 27q0 92 -62.5 155.5t-199.5 63.5t-239.5 -85t-149.5 -209t-47 -261q0 -150 76 -227.5t209 -77.5q262 0 348 246l20 20h84l21 -20q-45 -160 -166 -254t-307.5 -94 t-298 106t-111.5 301z" />
<glyph unicode="d" horiz-adv-x="1085" d="M45 375q0 164 56.5 312.5t182.5 252.5t300 104q121 0 197.5 -48t99.5 -115h20l94 532l21 21h84l20 -21l-246 -1393l-20 -20h-61l-21 20v119h-20q-109 -160 -334 -159q-174 0 -273.5 110.5t-99.5 284.5zM170 375q0 -143 69.5 -218t196.5 -75q102 0 184 51t130.5 135 t74 181.5t25.5 197.5q0 295 -262 295q-199 0 -308.5 -174t-109.5 -393z" />
<glyph unicode="e" horiz-adv-x="1024" d="M45 391q0 293 149.5 473t393.5 180q186 0 290.5 -104t104.5 -276q0 -72 -22 -172l-21 -21h-747l-21 -20q-4 -37 -4 -60q0 -53 14.5 -103t44 -98.5t90 -78t140.5 -29.5q217 0 319 205l21 20h84l20 -20q-18 -53 -47 -101.5t-79 -97.5t-132 -78.5t-186 -29.5 q-197 0 -304.5 116.5t-107.5 294.5zM199 594l20 -21h615l20 21q6 33 6 70q0 115 -64.5 196.5t-207.5 81.5q-88 0 -161 -34t-118 -87t-72.5 -111.5t-37.5 -115.5z" />
<glyph unicode="f" horiz-adv-x="716" d="M137 942l10 62l21 20h170l20 20l15 82q41 225 270 226h156l20 -21l-10 -61l-21 -21h-145q-121 0 -145 -123l-15 -82l21 -20h217l20 -20l-10 -62l-20 -20h-232l-20 -21l-156 -881l-20 -20h-84l-21 20l156 881l-21 21h-155z" />
<glyph unicode="g" horiz-adv-x="1085" d="M27 -164l2 21l20 20h84l21 -20q-2 -12 -2 -21q0 -164 231 -164q172 0 261 124t128 347h-20q-111 -164 -334 -163q-182 0 -277.5 109.5t-95.5 287.5q0 117 33 230.5t95.5 214t170 161.5t242.5 61q127 0 199.5 -47t95.5 -116h20l43 123l21 20h63l21 -20l-152 -861 q-53 -303 -178 -438t-336 -135q-170 0 -263 70.5t-93 195.5zM170 377q0 -295 264 -295q135 0 233.5 89t140.5 214t42 264q0 143 -68.5 218t-195.5 75q-135 0 -233.5 -89t-140.5 -214t-42 -262z" />
<glyph unicode="h" horiz-adv-x="1085" d="M35 20l246 1393l20 21h84l21 -21l-93 -520h21q53 72 139 111.5t186 39.5q154 0 244 -77.5t90 -218.5q0 -47 -10 -113l-109 -615l-20 -20h-84l-20 20l108 615q10 55 10 92q0 215 -219 215q-164 0 -262 -97t-129 -272l-98 -553l-21 -20h-84z" />
<glyph unicode="i" horiz-adv-x="368" d="M35 20l174 984l20 20h84l21 -20l-174 -984l-21 -20h-84zM246 1208l20 123l21 21h84l20 -21l-20 -123l-21 -20h-84z" />
<glyph unicode="j" horiz-adv-x="368" d="M-252 -348l10 61l21 21h86q61 0 97 36.5t52 127.5l195 1106l20 20h84l21 -20l-195 -1106q-25 -139 -90 -203t-184 -64h-96zM246 1208l20 123l21 21h84l20 -21l-20 -123l-21 -20h-84z" />
<glyph unicode="k" horiz-adv-x="962" d="M33 20l246 1393l20 21h84l20 -21l-155 -891h20l566 482l40 20h52l20 -20l-10 -62l-410 -348l-4 -21l303 -491l-12 -62l-20 -20h-27l-41 20l-293 478h-20l-176 -150l-27 -41l-51 -287l-21 -20h-84z" />
<glyph unicode="l" horiz-adv-x="368" d="M35 20l246 1393l20 21h84l21 -21l-246 -1393l-21 -20h-84z" />
<glyph unicode="m" horiz-adv-x="1617" d="M35 20l174 984l20 20h62l20 -20l4 -97h21q92 137 289 137q217 0 268 -157h20q123 158 330 157q313 0 313 -274q0 -29 -10 -84l-116 -666l-21 -20h-84l-20 20l116 666q10 55 11 84q0 172 -189 172q-285 0 -340 -307l-108 -615l-21 -20h-84l-20 20l116 666q10 55 11 84 q0 172 -189 172q-285 0 -340 -307l-108 -615l-21 -20h-84z" />
<glyph unicode="n" horiz-adv-x="1064" d="M35 20l174 984l20 20h62l20 -20v-117h21q123 158 334 157q326 0 325 -311q0 -51 -12 -121l-105 -592l-20 -20h-84l-20 20l104 592q12 66 12 113q0 217 -217 217q-164 0 -262 -97t-129 -272l-98 -553l-21 -20h-84z" />
<glyph unicode="o" horiz-adv-x="1064" d="M49 399q0 162 63.5 307.5t194.5 241.5t301 96q195 0 301.5 -110.5t106.5 -308.5q0 -162 -63.5 -307.5t-194.5 -241.5t-301 -96q-195 0 -301.5 110t-106.5 309zM174 399q0 -147 76 -232t207 -85t232.5 83t151.5 206t50 254q0 147 -76 232t-207 85t-232.5 -83t-151.5 -206 t-50 -254z" />
<glyph unicode="p" horiz-adv-x="1085" d="M-37 -389l246 1393l20 20h62l20 -20v-123h21q111 164 334 163q174 0 273 -110.5t99 -284.5q0 -164 -56 -312.5t-182 -252.5t-300 -104q-123 0 -199 48t-98 115h-21l-94 -532l-20 -21h-84zM233 377q0 -295 263 -295q199 0 308 174t109 393q0 143 -69.5 218t-196.5 75 q-102 0 -184 -51t-130 -135t-74 -181.5t-26 -197.5z" />
<glyph unicode="q" horiz-adv-x="1085" d="M45 377q0 117 33 230.5t95.5 214t170 161.5t242.5 61q127 0 199.5 -47t95.5 -116h20l43 123l21 20h63l21 -20l-246 -1393l-21 -21h-84l-20 21l94 532h-20q-111 -164 -334 -163q-182 0 -277.5 109.5t-95.5 287.5zM170 377q0 -295 264 -295q135 0 233.5 89t140.5 214 t42 264q0 143 -68.5 218t-195.5 75q-135 0 -233.5 -89t-140.5 -214t-42 -262z" />
<glyph unicode="r" horiz-adv-x="696" d="M35 20l174 984l20 20h62l20 -20v-117h21q59 76 119.5 106.5t152.5 30.5h117l20 -20l-10 -62l-20 -20h-107q-283 0 -346 -349l-98 -553l-21 -20h-84z" />
<glyph unicode="s" horiz-adv-x="901" d="M20 246q0 35 9 61l22 21h82l19 -21q-8 -27 -9 -61q0 -66 56.5 -115t175.5 -49q129 0 215 52t86 175q0 80 -64.5 116t-216.5 69q-272 57 -272 258q0 150 114.5 221t288.5 71q143 0 231.5 -62t88.5 -177q0 -23 -6 -47l-21 -21h-84l-20 21q6 25 6 47q0 137 -195 137 q-276 0 -276 -190q0 -78 61.5 -114t210.5 -67q279 -57 279 -262q0 -166 -119 -247.5t-307 -81.5q-166 0 -260.5 73.5t-94.5 192.5z" />
<glyph unicode="t" horiz-adv-x="737" d="M117 942l10 62l20 20h170l21 20l33 185l20 20h84l21 -20l-33 -185l20 -20h238l20 -20l-10 -62l-20 -20h-252l-21 -21l-119 -676q-4 -25 -4 -35q0 -88 103 -88h141l21 -20l-13 -62l-20 -20h-129q-109 0 -168.5 49t-59.5 137q0 14 5 39l118 676l-20 21h-156z" />
<glyph unicode="u" horiz-adv-x="1044" d="M68 285q0 41 8 84l112 635l21 20h84l20 -20l-112 -635q-8 -43 -8 -84q0 -203 202 -203q164 0 261.5 97t127.5 272l99 553l20 20h84l21 -20l-174 -984l-21 -20h-61l-21 20v119h-20q-125 -160 -334 -159q-147 0 -228 80t-81 225z" />
<glyph unicode="v" horiz-adv-x="1044" d="M137 942l10 62l21 20h53l21 -20l196 -861h21l499 861l21 20h70l20 -20l-10 -62l-553 -922l-21 -20h-102l-21 20z" />
<glyph unicode="w" horiz-adv-x="1536" d="M158 942l10 62l20 20h54l20 -20l100 -820h21l391 820l21 20h102l21 -20l100 -820h20l392 820l20 20h70l20 -20l-10 -62l-451 -922l-20 -20h-103l-20 20l-100 820h-21l-391 -820l-21 -20h-102l-20 20z" />
<glyph unicode="x" horiz-adv-x="962" d="M-6 20l12 62l395 424l5 20l-248 416l10 62l20 20h27l41 -20l223 -390h21l354 390l41 20h51l21 -20l-11 -62l-401 -430l-4 -20l242 -410l-13 -62l-18 -20h-27l-43 20l-217 381h-20l-349 -381l-40 -20h-52z" />
<glyph unicode="y" horiz-adv-x="962" d="M2 -287l10 62l21 20h45q90 0 140 44t93 128l8 33l-184 942l10 62l21 20h55l21 -20l159 -850h21l455 850l20 20h72l20 -20l-10 -62l-510 -942q-92 -170 -171 -238.5t-220 -68.5h-55z" />
<glyph unicode="z" horiz-adv-x="1003" d="M-6 20l14 82l21 41l759 758l5 21h-594l-21 20l10 62l21 20h737l21 -20l-15 -82l-20 -41l-760 -758l-4 -21h657l21 -20l-12 -62l-21 -20h-799z" />
<glyph unicode="{" horiz-adv-x="839" d="M158 492l6 40l20 21q72 0 109 52t55 153l64 368q27 152 118 230t228 78h55l21 -21l-11 -61l-20 -21h-45q-82 0 -142.5 -51t-78.5 -154l-64 -368q-33 -190 -143 -226l-6 -40q39 -20 55 -51t16 -89q0 -31 -8 -80l-65 -374q-6 -33 -7 -62q0 -70 42 -106.5t112 -36.5h37 l20 -21l-10 -61l-20 -21h-27q-119 0 -199 65.5t-80 180.5q0 29 7 62l65 374q8 49 8 80q0 63 -19.5 91t-72.5 28z" />
<glyph unicode="|" horiz-adv-x="614" d="M86 -389l317 1802l21 21h84l20 -21l-317 -1802l-21 -21h-84z" />
<glyph unicode="}" horiz-adv-x="839" d="M4 -389l10 61l21 21h45q82 0 142.5 51t78.5 154l64 368q33 190 143 226l6 40q-39 20 -55.5 51t-16.5 89q0 31 9 80l65 374q6 33 6 62q0 70 -42 106.5t-111 36.5h-37l-21 21l11 61l20 21h27q119 0 198.5 -65.5t79.5 -180.5q0 -29 -6 -62l-66 -374q-8 -49 -8 -80 q0 -63 19.5 -91t72.5 -28l21 -21l-6 -40l-21 -21q-72 0 -108.5 -52t-55.5 -153l-63 -368q-27 -152 -118 -230t-228 -78h-55z" />
<glyph unicode="~" d="M109 430q41 246 268 246q70 0 137.5 -35t111.5 -78t99 -77.5t102 -34.5q123 0 150 143l20 20h62l20 -20q-43 -246 -270 -246q-70 0 -137.5 35t-111.5 78t-99 77.5t-103 34.5q-123 0 -147 -143l-23 -20h-61z" />
<glyph unicode="&#xa1;" horiz-adv-x="655" d="M106 -389l97 553l104 471l21 20h43l20 -20l-63 -471l-97 -553l-20 -21h-84zM303 840l29 164l20 20h125l21 -20l-29 -164l-20 -21h-125z" />
<glyph unicode="&#xa2;" horiz-adv-x="1024" d="M47 387q0 248 136 440.5t374 214.5l21 21l14 84l20 20h64l20 -20l-16 -88l20 -23q135 -23 215 -104.5t80 -202.5l-2 -33l-20 -20h-84l-21 20q2 16 2 27q0 78 -47 137.5t-147 75.5l-21 -21l-141 -804l23 -23q197 35 268 240l20 20h84l21 -20q-41 -147 -148.5 -239.5 t-273.5 -106.5l-21 -21l-14 -84l-20 -20h-64l-20 20l16 92l-16 17q-150 25 -236 127t-86 274zM172 387q0 -260 215 -299l23 23l141 802l-23 21q-113 -23 -195.5 -110t-121.5 -200.5t-39 -236.5z" />
<glyph unicode="&#xa3;" horiz-adv-x="1228" d="M-6 20l12 62l21 20h20q145 0 178 185l54 307l-21 20h-115l-20 21l10 61l21 21h131l20 20l51 287q37 211 160 320.5t309 109.5q166 0 254 -84t88 -242q0 -51 -12 -104l-20 -20h-84l-21 20q12 53 12 104q0 223 -217 224q-285 0 -344 -328l-51 -287l21 -20h442l20 -21 l-10 -61l-20 -21h-459l-21 -20l-53 -307q-23 -125 -90 -164l-4 -21h795l20 -20l-10 -62l-21 -20h-1026z" />
<glyph unicode="&#xa4;" horiz-adv-x="1310" d="M41 49l4 21l119 102l4 21q-55 106 -55 229q0 215 170 424l4 20l-86 103l4 20l65 55h21l86 -102h20q168 102 334 102q182 0 320 -102h20l119 102h20l60 -69l-4 -21l-119 -102l-4 -21q55 -106 55 -229q0 -215 -170 -424l-4 -20l86 -103l-4 -20l-66 -55h-20l-86 102h-21 q-168 -102 -333 -102q-182 0 -320 102h-20l-119 -102h-21zM238 422q0 -152 92 -246t250 -94q203 0 348 154.5t145 365.5q0 152 -92 246t-250 94q-203 0 -348 -154.5t-145 -365.5z" />
<glyph unicode="&#xa5;" horiz-adv-x="1146" d="M201 614l12 62l20 20h228l4 21l-215 635l10 61l21 21h32l41 -21l228 -717h36l476 717l41 21h49l20 -21l-10 -61l-440 -635l-4 -21h223l20 -20l-12 -62l-20 -20h-252l-41 -21l-29 -41l-14 -81l20 -21h219l21 -20l-13 -62l-20 -20h-231l-21 -21l-51 -287l-21 -20h-84 l-20 20l51 287l-20 21h-219l-21 20l12 62l21 20h231l21 21l14 81l-12 41l-41 21h-240z" />
<glyph unicode="&#xa6;" horiz-adv-x="614" d="M160 20l96 553l20 21h84l21 -21l-96 -553l-21 -20h-84zM307 860l96 553l21 21h84l20 -21l-96 -553l-20 -20h-84z" />
<glyph unicode="&#xa7;" horiz-adv-x="1351" d="M100 -104q0 45 11 84l20 20h84l21 -20q-10 -39 -11 -84q0 -115 77 -169.5t245 -54.5q145 0 260 66.5t115 202.5q0 84 -47.5 129t-151.5 80q-29 10 -105 31l-126 37q-51 15 -121 47t-114 67t-74.5 91t-30.5 122q0 129 70.5 216t187.5 103l2 21q-104 78 -105 221 q0 92 44 162.5t118 109.5t158 57.5t176 18.5q215 0 331.5 -82t116.5 -235q0 -41 -10 -93l-20 -20h-84l-21 20q10 47 10 93q0 215 -323 215q-66 0 -126.5 -11.5t-118.5 -38t-93 -76.5t-35 -120q0 -80 43 -125t135 -78q35 -12 111 -33l131 -35q55 -15 126 -47t117 -68 t77.5 -93.5t31.5 -126.5q0 -129 -69.5 -214t-188.5 -102l-2 -20q104 -76 105 -223q0 -178 -147.5 -274.5t-352.5 -96.5q-447 0 -447 326zM276 555q0 -51 25 -93t62.5 -67.5t97 -49t113.5 -39.5l129 -38q75 -23 126 -43h21q100 20 163.5 90t63.5 185q0 61 -31.5 106t-93 74 t-123.5 47l-153 44q-92 26 -152 48h-20q-228 -41 -228 -264z" />
<glyph unicode="&#xa8;" horiz-adv-x="1024" d="M387 1208l21 123l20 21h104l21 -21l-21 -123l-20 -20h-104zM735 1208l21 123l20 21h105l20 -21l-20 -123l-21 -20h-104z" />
<glyph unicode="&#xa9;" horiz-adv-x="1720" d="M145 608q0 334 253 590t610 256q283 0 460 -180t177 -447q0 -334 -252 -590.5t-609 -256.5q-283 0 -461 181t-178 447zM252 608q0 -221 147.5 -373.5t384.5 -152.5q307 0 530.5 226.5t223.5 518.5q0 221 -146.5 373t-383.5 152q-203 0 -379 -105.5t-276.5 -277 t-100.5 -361.5zM496 625q0 211 122.5 366.5t333.5 155.5q129 0 224.5 -60.5t95.5 -195.5q0 -16 -2 -31l-21 -20h-84l-20 20q2 6 2 21q0 80 -52.5 121.5t-142.5 41.5q-152 0 -241.5 -126.5t-89.5 -292.5q0 -109 54 -172.5t163 -63.5q190 0 256 184l24 21h84l17 -21 q-29 -106 -96.5 -173.5t-137.5 -90t-147 -22.5q-162 0 -252 89t-90 249z" />
<glyph unicode="&#xaa;" horiz-adv-x="1105" d="M211 553l4 20l21 21h675l21 -21l-4 -20l-21 -21h-676zM252 989q0 186 111.5 325.5t295.5 139.5q133 0 209 -86h21l26 45l21 21h61l21 -21l-94 -532q-2 -10 -2 -23q0 -39 32 -39h17l20 -20l-14 -82l-21 -21h-45q-92 0 -106 76h-21q-10 -10 -29.5 -26.5t-81 -43 t-124.5 -26.5q-131 0 -214 84t-83 229zM377 989q0 -100 50 -155.5t132 -55.5q127 0 204 111.5t77 251.5q0 96 -46 153.5t-135 57.5q-125 0 -203.5 -113t-78.5 -250z" />
<glyph unicode="&#xab;" horiz-adv-x="1249" d="M158 483l14 82l29 41l393 336l41 21h76l20 -21l-8 -41l-434 -369l-6 -40l303 -369l-6 -41l-21 -21h-51l-41 21l-295 360zM588 483l14 82l29 41l393 336l41 21h76l20 -21l-8 -41l-434 -369l-6 -40l303 -369l-6 -41l-21 -21h-51l-41 21l-295 360z" />
<glyph unicode="&#xac;" d="M119 492l10 61l21 20h860l20 -20l-61 -348l-21 -21h-63l-21 21l43 248l-20 18h-748z" />
<glyph unicode="&#xad;" horiz-adv-x="798" d="M119 492l10 61l21 20h512l20 -20l-10 -61l-21 -21h-512z" />
<glyph unicode="&#xae;" horiz-adv-x="1720" d="M145 608q0 334 253 590t610 256q283 0 460 -180t177 -447q0 -334 -252 -590.5t-609 -256.5q-283 0 -461 181t-178 447zM252 608q0 -221 147.5 -373.5t384.5 -152.5q307 0 530.5 226.5t223.5 518.5q0 221 -146.5 373t-383.5 152q-203 0 -379 -105.5t-276.5 -277 t-100.5 -361.5zM518 328l137 778l21 20h397q111 0 177.5 -58t66.5 -157q0 -100 -61.5 -169.5t-165.5 -86.5l-5 -20l125 -225l-14 -82l-20 -21h-33l-21 21l-155 286l-21 21h-213l-41 -21l-49 -286l-20 -21h-84zM719 758l20 -21h283q76 0 124 48.5t48 125.5q0 113 -121 113 h-291l-20 -20z" />
<glyph unicode="&#xaf;" horiz-adv-x="1024" d="M330 1229l12 61l20 21h574l20 -21l-12 -61l-20 -21h-574z" />
<glyph unicode="&#xb0;" d="M248 952q0 201 142 351.5t351 150.5q172 0 275.5 -101.5t103.5 -256.5q0 -201 -142 -351.5t-353 -150.5q-174 0 -275.5 100t-101.5 258zM371 952q0 -115 67.5 -185.5t186.5 -70.5q154 0 263 120t109 278q0 115 -68.5 186.5t-187.5 71.5q-154 0 -262 -120t-108 -280z" />
<glyph unicode="&#xb1;" d="M55 20l13 62l20 20h883l20 -20l-12 -62l-21 -20h-882zM160 614l12 62l21 20h374l21 21l51 287l20 20h64l20 -20l-51 -287l21 -21h362l21 -20l-13 -62l-20 -20h-375l-20 -21l-52 -286l-20 -21h-64l-20 21l51 286l-20 21h-363z" />
<glyph unicode="&#xb2;" horiz-adv-x="698" d="M137 717l15 82l28 41l185 123q72 47 111.5 78.5t81.5 94t42 130.5q0 86 -104 86q-68 0 -103 -39t-43 -84l-20 -21h-82l-21 21q18 98 88 161.5t181 63.5q106 0 167.5 -52t61.5 -136q0 -119 -76 -202t-225 -183l-92 -62l-4 -20h313l21 -21l-13 -61l-20 -21h-471z" />
<glyph unicode="&#xb3;" horiz-adv-x="698" d="M150 891l2 31l20 20h84l20 -20q-2 -10 -2 -31q0 -113 121 -113q68 0 119 50.5t51 123.5q0 51 -28.5 76t-71.5 25q-23 0 -45 -9h-37l-21 21l13 72l207 174l4 20h-295l-21 21l11 61l20 21h410l20 -21l-18 -102l-27 -41l-145 -123l-4 -21q74 0 113.5 -47t39.5 -127 q0 -119 -84 -197.5t-211 -78.5q-119 0 -182 60.5t-63 154.5z" />
<glyph unicode="&#xb4;" horiz-adv-x="1024" d="M438 1167l6 31l232 215l41 21h76l20 -21l-6 -41l-262 -205l-41 -20h-45z" />
<glyph unicode="&#xb5;" d="M25 -389l245 1393l21 20h84l20 -20l-100 -574q-8 -43 -8 -96q0 -117 59.5 -184.5t171.5 -67.5q135 0 226.5 95t119.5 253l101 574l20 20h84l21 -20l-175 -984l-20 -20h-64l-22 20v97h-21q-94 -137 -270 -137q-96 0 -165.5 39.5t-90.5 113.5h-20l-92 -522l-21 -21h-84z " />
<glyph unicode="&#xb6;" horiz-adv-x="1433" d="M221 965q0 231 155.5 350t397.5 119h676l20 -21l-10 -61l-20 -21h-131l-21 -20l-299 -1700l-20 -21h-84l-21 21l299 1700l-20 20h-246l-20 -20l-299 -1700l-21 -21h-84l-20 21l174 983l-21 20q-170 0 -277.5 90.5t-107.5 260.5z" />
<glyph unicode="&#xb7;" horiz-adv-x="491" d="M150 451l28 163l21 21h125l20 -21l-29 -163l-20 -21h-125z" />
<glyph unicode="&#xb8;" horiz-adv-x="1024" d="M176 -348l2 20l21 21h24q25 -29 52.5 -35t84.5 -6q49 0 84 25.5t35 74.5q0 63 -90 64q-41 0 -86 -21h-20l-21 21l2 20l195 164h86l-170 -143h20q45 20 86 20q43 0 72 -29.5t29 -85.5q0 -96 -65.5 -144t-172.5 -48q-61 0 -96 17.5t-72 64.5z" />
<glyph unicode="&#xb9;" horiz-adv-x="716" d="M135 717l12 61l21 21h192l21 20l76 436h-21l-129 -108h-51l-20 20l10 62l217 184l41 21h84l20 -21l-104 -594l20 -20h138l20 -21l-12 -61l-21 -21h-493z" />
<glyph unicode="&#xba;" horiz-adv-x="1064" d="M211 553l4 20l21 21h614l20 -21l-4 -20l-20 -21h-615zM252 989q0 182 122 323.5t306 141.5q158 0 242 -87t84 -226q0 -182 -122 -323.5t-306 -141.5q-158 0 -242 87t-84 226zM377 989q0 -98 50 -154.5t151 -56.5q133 0 218 109.5t85 253.5q0 98 -50.5 154.5t-150.5 56.5 q-133 0 -218 -110t-85 -253z" />
<glyph unicode="&#xbb;" horiz-adv-x="1249" d="M88 82l8 41l434 369l7 40l-304 369l7 41l20 21h51l41 -21l295 -360l15 -41l-15 -82l-29 -41l-393 -336l-41 -21h-75zM518 82l8 41l435 369l6 40l-303 369l6 41l20 21h51l41 -21l295 -360l15 -41l-15 -82l-28 -41l-394 -336l-41 -21h-75z" />
<glyph unicode="&#xbc;" horiz-adv-x="1597" d="M135 717l12 61l21 21h192l21 20l76 436h-21l-129 -108h-51l-20 20l10 62l217 184l41 21h84l20 -21l-104 -594l20 -20h138l20 -21l-12 -61l-21 -21h-493zM281 20l12 62l1061 1331l20 21h74l20 -21l-10 -61l-1063 -1332l-20 -20h-74zM799 184l14 82l29 41l420 410l41 20 h104l20 -20l-122 -697l-21 -20h-84l-20 20l22 123l-20 21h-363zM967 266h239l21 21l49 274h-21l-284 -274z" />
<glyph unicode="&#xbd;" horiz-adv-x="1658" d="M135 717l12 61l21 21h192l21 20l76 436h-21l-129 -108h-51l-20 20l10 62l217 184l41 21h84l20 -21l-104 -594l20 -20h138l20 -21l-12 -61l-21 -21h-493zM281 20l12 62l1061 1331l20 21h74l20 -21l-10 -61l-1063 -1332l-20 -20h-74zM936 20l14 82l29 41l184 123 q72 47 112 79t82 94.5t42 129.5q0 86 -105 86q-68 0 -102.5 -38.5t-42.5 -84.5l-21 -20h-81l-21 20q18 98 88 162t180 64q106 0 168 -52.5t62 -136.5q0 -119 -76 -201.5t-225 -183.5l-93 -61l-4 -21h314l20 -20l-12 -62l-21 -20h-471z" />
<glyph unicode="&#xbe;" horiz-adv-x="1617" d="M190 891l3 31l20 20h84l20 -20q-2 -10 -2 -31q0 -113 121 -113q68 0 119 50.5t51 123.5q0 51 -28.5 76t-71.5 25q-23 0 -45 -9h-37l-21 21l13 72l207 174l4 20h-295l-21 21l11 61l20 21h410l20 -21l-18 -102l-27 -41l-145 -123l-4 -21q74 0 113.5 -47t39.5 -127 q0 -119 -84 -197.5t-211 -78.5q-119 0 -182.5 60.5t-63.5 154.5zM301 20l12 62l1061 1331l21 21h73l21 -21l-10 -61l-1063 -1332l-21 -20h-73zM819 184l15 82l28 41l420 410l41 20h104l21 -20l-123 -697l-20 -20h-84l-21 20l23 123l-21 21h-362zM987 266h240l20 21l49 274 h-20l-285 -274z" />
<glyph unicode="&#xbf;" horiz-adv-x="1146" d="M55 -117q0 109 41 195t98.5 139t164 131t141.5 131t55 176l20 21h84l21 -21q-27 -154 -74 -224.5t-188 -172.5q-127 -92 -182.5 -168t-55.5 -207q0 -92 57.5 -151.5t186.5 -59.5q287 0 344 328l20 20h84l21 -20q-76 -430 -469 -430q-176 0 -272.5 85t-96.5 228zM567 840 l29 164l20 20h125l21 -20l-29 -164l-20 -21h-125z" />
<glyph unicode="&#xc0;" horiz-adv-x="1249" d="M-47 20l12 62l746 1331l20 21h103l20 -21l279 -1331l-13 -62l-20 -20h-56l-20 20l-78 369l-20 21h-594l-62 -21l-209 -369l-20 -20h-68zM356 532l21 -20h512l20 20l-139 717h-20zM639 1782l6 41l21 20h55l41 -20l147 -215l-6 -31l-20 -21h-21l-41 21z" />
<glyph unicode="&#xc1;" horiz-adv-x="1249" d="M-47 20l12 62l746 1331l20 21h103l20 -21l279 -1331l-13 -62l-20 -20h-56l-20 20l-78 369l-20 21h-594l-62 -21l-209 -369l-20 -20h-68zM356 532l21 -20h512l20 20l-139 717h-20zM709 1577l6 31l231 215l41 20h76l20 -20l-6 -41l-262 -205l-41 -21h-45z" />
<glyph unicode="&#xc2;" horiz-adv-x="1249" d="M-47 20l12 62l746 1331l20 21h103l20 -21l279 -1331l-13 -62l-20 -20h-56l-20 20l-78 369l-20 21h-594l-62 -21l-209 -369l-20 -20h-68zM356 532l21 -20h512l20 20l-139 717h-20zM535 1577l8 41l239 205l41 20h62l41 -20l170 -205l-9 -41l-20 -21h-12l-41 21l-160 143 h-20l-207 -143l-41 -21h-31z" />
<glyph unicode="&#xc3;" horiz-adv-x="1249" d="M-47 20l12 62l746 1331l20 21h103l20 -21l279 -1331l-13 -62l-20 -20h-56l-20 20l-78 369l-20 21h-594l-62 -21l-209 -369l-20 -20h-68zM356 532l21 -20h512l20 20l-139 717h-20zM535 1577q31 184 184 184q61 0 107 -30.5t81 -61.5t68 -31q61 0 76 82l20 21h41l21 -21 q-35 -184 -187 -184q-61 0 -107 30.5t-80 61.5t-67 31q-61 0 -76 -82l-20 -21h-41z" />
<glyph unicode="&#xc4;" horiz-adv-x="1249" d="M-47 20l12 62l746 1331l20 21h103l20 -21l279 -1331l-13 -62l-20 -20h-56l-20 20l-78 369l-20 21h-594l-62 -21l-209 -369l-20 -20h-68zM356 532l21 -20h512l20 20l-139 717h-20zM582 1618l20 123l21 20h104l21 -20l-21 -123l-20 -21h-105zM909 1618l21 123l20 20h105 l20 -20l-20 -123l-21 -21h-104z" />
<glyph unicode="&#xc5;" horiz-adv-x="1249" d="M-47 20l12 62l746 1331l20 21h103l20 -21l279 -1331l-13 -62l-20 -20h-56l-20 20l-78 369l-20 21h-594l-62 -21l-209 -369l-20 -20h-68zM356 532l21 -20h512l20 20l-139 717h-20zM596 1634q0 88 67.5 148.5t163.5 60.5h21q86 0 136 -47t50 -115q0 -88 -67.5 -147 t-163.5 -59h-21q-86 0 -136 45.5t-50 113.5zM700 1634q0 -35 24 -56.5t62 -21.5h21q51 0 87 36t36 89q0 35 -23.5 57.5t-62.5 22.5h-21q-51 0 -87 -37t-36 -90z" />
<glyph unicode="&#xc6;" horiz-adv-x="1925" d="M-27 20l13 62l970 1331l41 21h963l20 -21l-10 -61l-20 -21h-693l-20 -20l-90 -512l20 -21h637l21 -20l-13 -62l-20 -20h-649l-21 -21l-94 -532l21 -21h677l21 -20l-12 -62l-21 -20h-809l-20 20l65 369l-20 21h-533l-41 -21l-270 -369l-20 -20h-72zM463 532l20 -20h471 l21 20l137 779l-20 20h-21l-41 -20z" />
<glyph unicode="&#xc7;" horiz-adv-x="1372" d="M100 553q0 137 30 267t93.5 245t151.5 202t213 137t270 50q229 0 375.5 -109.5t146.5 -295.5v-25l-20 -20h-84l-21 20v25q0 141 -109.5 222t-287.5 81q-201 0 -348.5 -118t-216 -296t-68.5 -385q0 -223 122 -347t327 -124q184 0 309 90t168 258l20 21h84l21 -21 q-102 -430 -571 -450l-46 -21l-120 -102h20q45 20 86 20q43 0 71.5 -29.5t28.5 -85.5q0 -96 -65.5 -144t-171.5 -48q-61 0 -96 17.5t-72 64.5l2 20l20 21h25q25 -29 52.5 -35t84.5 -6q49 0 84 25.5t35 74.5q0 63 -90 64q-41 0 -86 -21h-21l-20 21l2 20l154 129l4 21 q-223 23 -354.5 171t-131.5 396z" />
<glyph unicode="&#xc8;" d="M76 20l246 1393l20 21h881l20 -21l-10 -61l-21 -21h-763l-21 -20l-90 -512l20 -21h709l20 -20l-12 -62l-20 -20h-721l-21 -21l-94 -532l21 -21h749l21 -20l-13 -62l-20 -20h-881zM680 1782l6 41l21 20h55l41 -20l147 -215l-6 -31l-20 -21h-21l-41 21z" />
<glyph unicode="&#xc9;" d="M76 20l246 1393l20 21h881l20 -21l-10 -61l-21 -21h-763l-21 -20l-90 -512l20 -21h709l20 -20l-12 -62l-20 -20h-721l-21 -21l-94 -532l21 -21h749l21 -20l-13 -62l-20 -20h-881zM668 1577l6 31l231 215l41 20h76l20 -20l-6 -41l-262 -205l-41 -21h-45z" />
<glyph unicode="&#xca;" d="M76 20l246 1393l20 21h881l20 -21l-10 -61l-21 -21h-763l-21 -20l-90 -512l20 -21h709l20 -20l-12 -62l-20 -20h-721l-21 -21l-94 -532l21 -21h749l21 -20l-13 -62l-20 -20h-881zM535 1577l8 41l239 205l41 20h82l41 -20l170 -205l-8 -41l-21 -21h-12l-41 21l-160 143 h-40l-207 -143l-41 -21h-31z" />
<glyph unicode="&#xcb;" d="M76 20l246 1393l20 21h881l20 -21l-10 -61l-21 -21h-763l-21 -20l-90 -512l20 -21h709l20 -20l-12 -62l-20 -20h-721l-21 -21l-94 -532l21 -21h749l21 -20l-13 -62l-20 -20h-881zM582 1618l20 123l21 20h104l21 -20l-21 -123l-20 -21h-105zM930 1618l20 123l21 20h104 l21 -20l-21 -123l-20 -21h-105z" />
<glyph unicode="&#xcc;" horiz-adv-x="450" d="M76 20l246 1393l20 21h84l20 -21l-245 -1393l-21 -20h-84zM229 1782l7 41l20 20h55l41 -20l148 -215l-6 -31l-21 -21h-20l-41 21z" />
<glyph unicode="&#xcd;" horiz-adv-x="450" d="M76 20l246 1393l20 21h84l20 -21l-245 -1393l-21 -20h-84zM319 1577l7 31l231 215l41 20h76l20 -20l-6 -41l-262 -205l-41 -21h-45z" />
<glyph unicode="&#xce;" horiz-adv-x="450" d="M76 20l246 1393l20 21h84l20 -21l-245 -1393l-21 -20h-84zM125 1577l8 41l240 205l41 20h82l41 -20l170 -205l-9 -41l-20 -21h-12l-41 21l-160 143h-41l-207 -143l-41 -21h-31z" />
<glyph unicode="&#xcf;" horiz-adv-x="450" d="M76 20l246 1393l20 21h84l20 -21l-245 -1393l-21 -20h-84zM172 1618l21 123l20 20h104l21 -20l-21 -123l-20 -21h-104zM520 1618l21 123l20 20h105l20 -20l-20 -123l-21 -21h-104z" />
<glyph unicode="&#xd0;" horiz-adv-x="1372" d="M31 696l12 62l20 20h130l20 21l109 614l20 21h371q295 0 444.5 -145.5t149.5 -387.5q0 -190 -45 -349t-138.5 -285t-250 -196.5t-365.5 -70.5h-412l-20 20l112 635l-20 21h-117zM219 123l21 -21h268q176 0 309 62.5t212 174.5t117 253t38 309q0 195 -118 312.5 t-353 117.5h-264l-21 -20l-90 -512l20 -21h340l21 -20l-12 -62l-21 -20h-352l-21 -21z" />
<glyph unicode="&#xd1;" horiz-adv-x="1454" d="M76 20l246 1393l20 21h92l41 -21l615 -1208h20l213 1208l20 21h84l21 -21l-246 -1393l-20 -20h-92l-41 20l-615 1209h-20l-213 -1209l-21 -20h-84zM637 1577q31 184 184 184q61 0 107.5 -30.5t81 -61.5t67.5 -31q61 0 76 82l21 21h40l21 -21q-35 -184 -186 -184 q-61 0 -107.5 30.5t-80.5 61.5t-66 31q-61 0 -76 -82l-21 -21h-41z" />
<glyph unicode="&#xd2;" horiz-adv-x="1474" d="M106 553q0 166 47.5 322.5t136.5 287.5t238.5 211t337.5 80q279 0 427.5 -153.5t148.5 -419.5q0 -166 -47 -323t-136.5 -288t-239 -210.5t-337.5 -79.5q-279 0 -427.5 153.5t-148.5 419.5zM229 553q0 -219 117 -345t336 -126q158 0 283 70.5t200.5 186.5t114.5 255 t39 287q0 219 -117 345t-336 126q-158 0 -282.5 -71t-200.5 -186.5t-115 -255t-39 -286.5zM782 1782l6 41l21 20h55l41 -20l148 -215l-6 -31l-21 -21h-20l-41 21z" />
<glyph unicode="&#xd3;" horiz-adv-x="1474" d="M106 553q0 166 47.5 322.5t136.5 287.5t238.5 211t337.5 80q279 0 427.5 -153.5t148.5 -419.5q0 -166 -47 -323t-136.5 -288t-239 -210.5t-337.5 -79.5q-279 0 -427.5 153.5t-148.5 419.5zM229 553q0 -219 117 -345t336 -126q158 0 283 70.5t200.5 186.5t114.5 255 t39 287q0 219 -117 345t-336 126q-158 0 -282.5 -71t-200.5 -186.5t-115 -255t-39 -286.5zM791 1577l6 31l231 215l41 20h76l20 -20l-6 -41l-262 -205l-41 -21h-45z" />
<glyph unicode="&#xd4;" horiz-adv-x="1474" d="M106 553q0 166 47.5 322.5t136.5 287.5t238.5 211t337.5 80q279 0 427.5 -153.5t148.5 -419.5q0 -166 -47 -323t-136.5 -288t-239 -210.5t-337.5 -79.5q-279 0 -427.5 153.5t-148.5 419.5zM229 553q0 -219 117 -345t336 -126q158 0 283 70.5t200.5 186.5t114.5 255 t39 287q0 219 -117 345t-336 126q-158 0 -282.5 -71t-200.5 -186.5t-115 -255t-39 -286.5zM637 1577l8 41l240 205l41 20h82l41 -20l170 -205l-9 -41l-20 -21h-12l-41 21l-160 143h-41l-207 -143l-41 -21h-31z" />
<glyph unicode="&#xd5;" horiz-adv-x="1474" d="M106 553q0 166 47.5 322.5t136.5 287.5t238.5 211t337.5 80q279 0 427.5 -153.5t148.5 -419.5q0 -166 -47 -323t-136.5 -288t-239 -210.5t-337.5 -79.5q-279 0 -427.5 153.5t-148.5 419.5zM229 553q0 -219 117 -345t336 -126q158 0 283 70.5t200.5 186.5t114.5 255 t39 287q0 219 -117 345t-336 126q-158 0 -282.5 -71t-200.5 -186.5t-115 -255t-39 -286.5zM637 1577q31 184 184 184q61 0 107.5 -30.5t81 -61.5t67.5 -31q61 0 76 82l21 21h40l21 -21q-35 -184 -186 -184q-61 0 -107.5 30.5t-80.5 61.5t-66 31q-61 0 -76 -82l-21 -21h-41z " />
<glyph unicode="&#xd6;" horiz-adv-x="1474" d="M106 553q0 166 47.5 322.5t136.5 287.5t238.5 211t337.5 80q279 0 427.5 -153.5t148.5 -419.5q0 -166 -47 -323t-136.5 -288t-239 -210.5t-337.5 -79.5q-279 0 -427.5 153.5t-148.5 419.5zM229 553q0 -219 117 -345t336 -126q158 0 283 70.5t200.5 186.5t114.5 255 t39 287q0 219 -117 345t-336 126q-158 0 -282.5 -71t-200.5 -186.5t-115 -255t-39 -286.5zM686 1618l21 123l20 20h104l21 -20l-21 -123l-20 -21h-104zM1034 1618l21 123l20 20h105l20 -20l-20 -123l-21 -21h-104z" />
<glyph unicode="&#xd7;" horiz-adv-x="1167" d="M102 172l2 21l379 319l2 37l-260 317l2 21l68 55h20l269 -328h18l387 328h21l55 -70l-2 -20l-377 -320l-2 -36l258 -318l-2 -20l-66 -56h-20l-268 328h-19l-387 -328h-20z" />
<glyph unicode="&#xd8;" horiz-adv-x="1474" d="M12 123l8 37l132 110l2 19q-47 109 -48 264q0 166 47.5 322.5t136.5 287.5t238.5 211t337.5 80q305 0 457 -186h18l101 84l41 20h37l20 -20l-8 -37l-146 -123l-4 -21q59 -125 59.5 -290.5t-46.5 -322.5t-136.5 -288t-239 -210.5t-337.5 -79.5q-328 0 -475 210h-17 l-79 -67l-41 -21h-37zM229 553q0 -102 25 -182h16l957 800l4 21q-121 160 -365 160q-158 0 -282.5 -71t-200.5 -186.5t-115 -255t-39 -286.5zM301 266q113 -184 381 -184q158 0 283 70.5t200.5 186.5t114.5 255t39 287q0 117 -35 211h-16l-965 -807z" />
<glyph unicode="&#xd9;" horiz-adv-x="1392" d="M154 381q0 66 10 127l158 905l20 21h84l20 -21l-157 -905q-10 -61 -10 -127q0 -143 85 -221t244 -78q233 0 345 106.5t151 325.5l158 899l20 21h84l20 -21l-157 -899q-47 -264 -187.5 -399t-433.5 -135q-215 0 -334.5 108.5t-119.5 292.5zM741 1782l7 41l20 20h55l41 -20 l148 -215l-6 -31l-21 -21h-20l-41 21z" />
<glyph unicode="&#xda;" horiz-adv-x="1392" d="M154 381q0 66 10 127l158 905l20 21h84l20 -21l-157 -905q-10 -61 -10 -127q0 -143 85 -221t244 -78q233 0 345 106.5t151 325.5l158 899l20 21h84l20 -21l-157 -899q-47 -264 -187.5 -399t-433.5 -135q-215 0 -334.5 108.5t-119.5 292.5zM750 1577l6 31l231 215l41 20 h76l20 -20l-6 -41l-262 -205l-41 -21h-45z" />
<glyph unicode="&#xdb;" horiz-adv-x="1392" d="M154 381q0 66 10 127l158 905l20 21h84l20 -21l-157 -905q-10 -61 -10 -127q0 -143 85 -221t244 -78q233 0 345 106.5t151 325.5l158 899l20 21h84l20 -21l-157 -899q-47 -264 -187.5 -399t-433.5 -135q-215 0 -334.5 108.5t-119.5 292.5zM596 1577l8 41l240 205l41 20 h82l41 -20l170 -205l-9 -41l-20 -21h-12l-41 21l-160 143h-41l-207 -143l-41 -21h-31z" />
<glyph unicode="&#xdc;" horiz-adv-x="1392" d="M154 381q0 66 10 127l158 905l20 21h84l20 -21l-157 -905q-10 -61 -10 -127q0 -143 85 -221t244 -78q233 0 345 106.5t151 325.5l158 899l20 21h84l20 -21l-157 -899q-47 -264 -187.5 -399t-433.5 -135q-215 0 -334.5 108.5t-119.5 292.5zM643 1618l21 123l20 20h104 l21 -20l-21 -123l-20 -21h-104zM991 1618l21 123l20 20h105l20 -20l-20 -123l-21 -21h-104z" />
<glyph unicode="&#xdd;" horiz-adv-x="1146" d="M209 1352l10 61l21 21h51l20 -21l281 -676h20l518 676l41 21h52l20 -21l-10 -61l-582 -758l-102 -574l-21 -20h-84l-20 20l102 574zM647 1577l6 31l232 215l41 20h75l21 -20l-6 -41l-262 -205l-41 -21h-45z" />
<glyph unicode="&#xde;" horiz-adv-x="1206" d="M76 20l246 1393l20 21h84l20 -21l-53 -307l21 -21h366q193 0 292 -82.5t99 -226.5q0 -209 -123.5 -318.5t-361.5 -109.5h-410l-20 -20l-55 -308l-21 -20h-84zM281 471l20 -20h385q362 0 363 325q0 207 -269 207h-393l-20 -20z" />
<glyph unicode="&#xdf;" d="M117 20l155 881l-20 21h-94l-21 20l10 62l21 20h108l21 20q35 190 159 300t326 110q188 0 279.5 -87t91.5 -222q0 -131 -68.5 -236.5t-201.5 -140.5l-4 -20q100 -14 158.5 -88t58.5 -193q0 -205 -129 -346t-346 -141q-143 0 -193 40l-20 21l8 41l20 20q61 -20 185 -20 q158 0 254 110.5t96 274.5q0 229 -326 229l-16 21l12 61l23 21q160 2 262 92t102 254q0 94 -60.5 150.5t-185.5 56.5q-150 0 -243 -83t-117 -225l-180 -1024l-21 -20h-84z" />
<glyph unicode="&#xe0;" horiz-adv-x="1085" d="M47 385q0 119 34 233.5t98.5 211t171 155.5t237.5 59q121 0 196.5 -50t98.5 -120h20l43 130l21 20h61l21 -20l-175 -984l-20 -20h-59l-21 20v117h-20q-45 -68 -127 -112.5t-191 -44.5q-180 0 -284.5 107.5t-104.5 297.5zM172 385q0 -143 68.5 -223t195.5 -80 q131 0 229.5 88t142.5 212t44 257q0 143 -68.5 223t-195.5 80q-131 0 -229.5 -88t-142.5 -212t-44 -257zM506 1372l6 41l20 21h56l41 -21l147 -215l-6 -31l-20 -20h-21l-41 20z" />
<glyph unicode="&#xe1;" horiz-adv-x="1085" d="M47 385q0 119 34 233.5t98.5 211t171 155.5t237.5 59q121 0 196.5 -50t98.5 -120h20l43 130l21 20h61l21 -20l-175 -984l-20 -20h-59l-21 20v117h-20q-45 -68 -127 -112.5t-191 -44.5q-180 0 -284.5 107.5t-104.5 297.5zM172 385q0 -143 68.5 -223t195.5 -80 q131 0 229.5 88t142.5 212t44 257q0 143 -68.5 223t-195.5 80q-131 0 -229.5 -88t-142.5 -212t-44 -257zM508 1167l6 31l231 215l41 21h76l21 -21l-6 -41l-263 -205l-41 -20h-45z" />
<glyph unicode="&#xe2;" horiz-adv-x="1085" d="M47 385q0 119 34 233.5t98.5 211t171 155.5t237.5 59q121 0 196.5 -50t98.5 -120h20l43 130l21 20h61l21 -20l-175 -984l-20 -20h-59l-21 20v117h-20q-45 -68 -127 -112.5t-191 -44.5q-180 0 -284.5 107.5t-104.5 297.5zM172 385q0 -143 68.5 -223t195.5 -80 q131 0 229.5 88t142.5 212t44 257q0 143 -68.5 223t-195.5 80q-131 0 -229.5 -88t-142.5 -212t-44 -257zM340 1167l8 41l240 205l41 21h82l41 -21l170 -205l-9 -41l-20 -20h-12l-41 20l-160 144h-41l-207 -144l-41 -20h-31z" />
<glyph unicode="&#xe3;" horiz-adv-x="1085" d="M47 385q0 119 34 233.5t98.5 211t171 155.5t237.5 59q121 0 196.5 -50t98.5 -120h20l43 130l21 20h61l21 -20l-175 -984l-20 -20h-59l-21 20v117h-20q-45 -68 -127 -112.5t-191 -44.5q-180 0 -284.5 107.5t-104.5 297.5zM172 385q0 -143 68.5 -223t195.5 -80 q131 0 229.5 88t142.5 212t44 257q0 143 -68.5 223t-195.5 80q-131 0 -229.5 -88t-142.5 -212t-44 -257zM340 1167q31 184 184 185q61 0 107.5 -31t81.5 -61.5t67 -30.5q61 0 76 82l21 20h41l20 -20q-33 -184 -186 -185q-61 0 -107.5 31t-80.5 61.5t-66 30.5q-61 0 -76 -82 l-21 -20h-41z" />
<glyph unicode="&#xe4;" horiz-adv-x="1085" d="M47 385q0 119 34 233.5t98.5 211t171 155.5t237.5 59q121 0 196.5 -50t98.5 -120h20l43 130l21 20h61l21 -20l-175 -984l-20 -20h-59l-21 20v117h-20q-45 -68 -127 -112.5t-191 -44.5q-180 0 -284.5 107.5t-104.5 297.5zM172 385q0 -143 68.5 -223t195.5 -80 q131 0 229.5 88t142.5 212t44 257q0 143 -68.5 223t-195.5 80q-131 0 -229.5 -88t-142.5 -212t-44 -257zM387 1208l21 123l20 21h104l21 -21l-21 -123l-20 -20h-104zM735 1208l21 123l20 21h105l20 -21l-20 -123l-21 -20h-104z" />
<glyph unicode="&#xe5;" horiz-adv-x="1085" d="M47 385q0 119 34 233.5t98.5 211t171 155.5t237.5 59q121 0 196.5 -50t98.5 -120h20l43 130l21 20h61l21 -20l-175 -984l-20 -20h-59l-21 20v117h-20q-45 -68 -127 -112.5t-191 -44.5q-180 0 -284.5 107.5t-104.5 297.5zM172 385q0 -143 68.5 -223t195.5 -80 q131 0 229.5 88t142.5 212t44 257q0 143 -68.5 223t-195.5 80q-131 0 -229.5 -88t-142.5 -212t-44 -257zM440 1266q0 88 67.5 148.5t164.5 60.5q86 0 136 -47.5t50 -114.5q0 -88 -67.5 -147.5t-163.5 -59.5q-86 0 -136.5 46t-50.5 114zM545 1266q0 -35 23.5 -56.5 t62.5 -21.5q51 0 87 36t36 89q0 35 -23.5 57.5t-62.5 22.5q-51 0 -87 -37t-36 -90z" />
<glyph unicode="&#xe6;" horiz-adv-x="1699" d="M14 242q0 188 139.5 280t354.5 92q55 0 115.5 -5t93.5 -11l35 -4l20 20l12 62q10 57 11 94q0 90 -52.5 131t-175.5 41q-141 0 -213.5 -58.5t-89.5 -146.5l-20 -20h-84l-21 20q25 135 129.5 221t298.5 86q246 0 322 -143h20q139 143 351 143q186 0 290.5 -104t104.5 -276 q0 -72 -23 -172l-20 -21h-723l-21 -20q-6 -29 -6 -60q0 -309 266 -309q217 0 320 205l20 20h84l21 -20q-18 -53 -47 -101.5t-79 -97.5t-132 -78.5t-187 -29.5q-119 0 -214 51t-134 153h-20q-145 -205 -424 -204q-152 0 -237 73.5t-85 188.5zM139 242q0 -160 215 -160 q158 0 258.5 93t120.5 214l15 82l-21 21q-92 20 -215 20q-373 0 -373 -270zM895 594l20 -21h590l21 21q6 33 6 70q0 115 -64.5 196.5t-207.5 81.5q-88 0 -157 -32.5t-110 -88t-64.5 -112t-33.5 -115.5z" />
<glyph unicode="&#xe7;" horiz-adv-x="1024" d="M47 387q0 168 61.5 314.5t193.5 244.5t306 98t280.5 -87t106.5 -228l-2 -33l-20 -20h-84l-21 20q2 16 2 27q0 92 -62.5 155.5t-199.5 63.5t-239.5 -85t-149.5 -209t-47 -261q0 -150 76 -227.5t209 -77.5q262 0 348 246l20 20h84l21 -20q-41 -145 -142.5 -235.5 t-259.5 -108.5l-53 -25l-121 -102h21q45 20 86 20q43 0 71.5 -29.5t28.5 -85.5q0 -96 -65.5 -144t-171.5 -48q-61 0 -96 17.5t-72 64.5l2 20l20 21h25q25 -29 52.5 -35t84.5 -6q49 0 84 25.5t35 74.5q0 63 -90 64q-41 0 -86 -21h-21l-20 21l2 20l147 125l4 23 q-160 16 -254 120.5t-94 282.5z" />
<glyph unicode="&#xe8;" horiz-adv-x="1024" d="M45 391q0 293 149.5 473t393.5 180q186 0 290.5 -104t104.5 -276q0 -72 -22 -172l-21 -21h-747l-21 -20q-4 -37 -4 -60q0 -53 14.5 -103t44 -98.5t90 -78t140.5 -29.5q217 0 319 205l21 20h84l20 -20q-18 -53 -47 -101.5t-79 -97.5t-132 -78.5t-186 -29.5 q-197 0 -304.5 116.5t-107.5 294.5zM199 594l20 -21h615l20 21q6 33 6 70q0 115 -64.5 196.5t-207.5 81.5q-88 0 -161 -34t-118 -87t-72.5 -111.5t-37.5 -115.5zM465 1372l6 41l21 21h55l41 -21l147 -215l-6 -31l-20 -20h-21l-41 20z" />
<glyph unicode="&#xe9;" horiz-adv-x="1024" d="M45 391q0 293 149.5 473t393.5 180q186 0 290.5 -104t104.5 -276q0 -72 -22 -172l-21 -21h-747l-21 -20q-4 -37 -4 -60q0 -53 14.5 -103t44 -98.5t90 -78t140.5 -29.5q217 0 319 205l21 20h84l20 -20q-18 -53 -47 -101.5t-79 -97.5t-132 -78.5t-186 -29.5 q-197 0 -304.5 116.5t-107.5 294.5zM199 594l20 -21h615l20 21q6 33 6 70q0 115 -64.5 196.5t-207.5 81.5q-88 0 -161 -34t-118 -87t-72.5 -111.5t-37.5 -115.5zM494 1167l6 31l231 215l41 21h76l20 -21l-6 -41l-262 -205l-41 -20h-45z" />
<glyph unicode="&#xea;" horiz-adv-x="1024" d="M45 391q0 293 149.5 473t393.5 180q186 0 290.5 -104t104.5 -276q0 -72 -22 -172l-21 -21h-747l-21 -20q-4 -37 -4 -60q0 -53 14.5 -103t44 -98.5t90 -78t140.5 -29.5q217 0 319 205l21 20h84l20 -20q-18 -53 -47 -101.5t-79 -97.5t-132 -78.5t-186 -29.5 q-197 0 -304.5 116.5t-107.5 294.5zM199 594l20 -21h615l20 21q6 33 6 70q0 115 -64.5 196.5t-207.5 81.5q-88 0 -161 -34t-118 -87t-72.5 -111.5t-37.5 -115.5zM340 1167l8 41l240 205l41 21h82l41 -21l170 -205l-9 -41l-20 -20h-12l-41 20l-160 144h-41l-207 -144l-41 -20 h-31z" />
<glyph unicode="&#xeb;" horiz-adv-x="1024" d="M45 391q0 293 149.5 473t393.5 180q186 0 290.5 -104t104.5 -276q0 -72 -22 -172l-21 -21h-747l-21 -20q-4 -37 -4 -60q0 -53 14.5 -103t44 -98.5t90 -78t140.5 -29.5q217 0 319 205l21 20h84l20 -20q-18 -53 -47 -101.5t-79 -97.5t-132 -78.5t-186 -29.5 q-197 0 -304.5 116.5t-107.5 294.5zM199 594l20 -21h615l20 21q6 33 6 70q0 115 -64.5 196.5t-207.5 81.5q-88 0 -161 -34t-118 -87t-72.5 -111.5t-37.5 -115.5zM387 1208l21 123l20 21h104l21 -21l-21 -123l-20 -20h-104zM735 1208l21 123l20 21h105l20 -21l-20 -123 l-21 -20h-104z" />
<glyph unicode="&#xec;" horiz-adv-x="368" d="M35 20l174 984l20 20h84l21 -20l-174 -984l-21 -20h-84zM117 1372l6 41l20 21h56l41 -21l147 -215l-6 -31l-21 -20h-20l-41 20z" />
<glyph unicode="&#xed;" horiz-adv-x="368" d="M35 20l174 984l20 20h84l21 -20l-174 -984l-21 -20h-84zM207 1167l6 31l231 215l41 21h76l21 -21l-7 -41l-262 -205l-41 -20h-45z" />
<glyph unicode="&#xee;" horiz-adv-x="368" d="M12 1167l8 41l240 205l41 21h82l41 -21l170 -205l-8 -41l-21 -20h-12l-41 20l-160 144h-41l-207 -144l-41 -20h-30zM35 20l174 984l20 20h84l21 -20l-174 -984l-21 -20h-84z" />
<glyph unicode="&#xef;" horiz-adv-x="368" d="M35 20l174 984l20 20h84l21 -20l-174 -984l-21 -20h-84zM59 1208l21 123l20 21h105l20 -21l-20 -123l-21 -20h-104zM408 1208l20 123l21 21h104l20 -21l-20 -123l-21 -20h-104z" />
<glyph unicode="&#xf0;" horiz-adv-x="1064" d="M68 387q0 115 31.5 227.5t94 211t169 158.5t241.5 60q102 0 171 -36.5t97 -92.5h21q2 16 2 41q0 190 -109 273h-20l-96 -82l-41 -21h-47l-21 21v41l98 84l5 20q-74 39 -168 39l-21 21l4 20l23 21l41 20q104 0 217 -39h20l70 60l41 20h49l21 -20l-3 -41l-75 -66l-4 -18 q145 -131 145 -412q0 -381 -100 -606q-141 -311 -465 -311q-188 0 -289.5 112.5t-101.5 294.5zM193 387q0 -147 71.5 -226t192.5 -79q135 0 233 87t140 212t42 266q0 295 -268 295q-133 0 -230.5 -87t-139 -210t-41.5 -258z" />
<glyph unicode="&#xf1;" horiz-adv-x="1064" d="M35 20l174 984l20 20h62l20 -20v-117h21q123 158 334 157q326 0 325 -311q0 -51 -12 -121l-105 -592l-20 -20h-84l-20 20l104 592q12 66 12 113q0 217 -217 217q-164 0 -262 -97t-129 -272l-98 -553l-21 -20h-84zM381 1167q31 184 184 185q61 0 107.5 -31t81 -61.5 t67.5 -30.5q61 0 76 82l21 20h40l21 -20q-33 -184 -186 -185q-61 0 -107.5 31t-80.5 61.5t-66 30.5q-61 0 -76 -82l-21 -20h-41z" />
<glyph unicode="&#xf2;" horiz-adv-x="1064" d="M49 399q0 162 63.5 307.5t194.5 241.5t301 96q195 0 301.5 -110.5t106.5 -308.5q0 -162 -63.5 -307.5t-194.5 -241.5t-301 -96q-195 0 -301.5 110t-106.5 309zM174 399q0 -147 76 -232t207 -85t232.5 83t151.5 206t50 254q0 147 -76 232t-207 85t-232.5 -83t-151.5 -206 t-50 -254zM506 1372l6 41l20 21h56l41 -21l147 -215l-6 -31l-20 -20h-21l-41 20z" />
<glyph unicode="&#xf3;" horiz-adv-x="1064" d="M49 399q0 162 63.5 307.5t194.5 241.5t301 96q195 0 301.5 -110.5t106.5 -308.5q0 -162 -63.5 -307.5t-194.5 -241.5t-301 -96q-195 0 -301.5 110t-106.5 309zM174 399q0 -147 76 -232t207 -85t232.5 83t151.5 206t50 254q0 147 -76 232t-207 85t-232.5 -83t-151.5 -206 t-50 -254zM514 1167l6 31l232 215l41 21h75l21 -21l-6 -41l-262 -205l-41 -20h-45z" />
<glyph unicode="&#xf4;" horiz-adv-x="1064" d="M49 399q0 162 63.5 307.5t194.5 241.5t301 96q195 0 301.5 -110.5t106.5 -308.5q0 -162 -63.5 -307.5t-194.5 -241.5t-301 -96q-195 0 -301.5 110t-106.5 309zM174 399q0 -147 76 -232t207 -85t232.5 83t151.5 206t50 254q0 147 -76 232t-207 85t-232.5 -83t-151.5 -206 t-50 -254zM360 1167l9 41l239 205l41 21h82l41 -21l170 -205l-8 -41l-21 -20h-12l-41 20l-160 144h-41l-206 -144l-41 -20h-31z" />
<glyph unicode="&#xf5;" horiz-adv-x="1064" d="M49 399q0 162 63.5 307.5t194.5 241.5t301 96q195 0 301.5 -110.5t106.5 -308.5q0 -162 -63.5 -307.5t-194.5 -241.5t-301 -96q-195 0 -301.5 110t-106.5 309zM174 399q0 -147 76 -232t207 -85t232.5 83t151.5 206t50 254q0 147 -76 232t-207 85t-232.5 -83t-151.5 -206 t-50 -254zM360 1167q31 184 185 185q61 0 107 -31t81 -61.5t68 -30.5q61 0 76 82l20 20h41l20 -20q-33 -184 -186 -185q-61 0 -107.5 31t-80 61.5t-66.5 30.5q-61 0 -76 -82l-20 -20h-41z" />
<glyph unicode="&#xf6;" horiz-adv-x="1064" d="M49 399q0 162 63.5 307.5t194.5 241.5t301 96q195 0 301.5 -110.5t106.5 -308.5q0 -162 -63.5 -307.5t-194.5 -241.5t-301 -96q-195 0 -301.5 110t-106.5 309zM174 399q0 -147 76 -232t207 -85t232.5 83t151.5 206t50 254q0 147 -76 232t-207 85t-232.5 -83t-151.5 -206 t-50 -254zM408 1208l20 123l21 21h104l20 -21l-20 -123l-21 -20h-104zM756 1208l20 123l21 21h104l21 -21l-21 -123l-20 -20h-105z" />
<glyph unicode="&#xf7;" horiz-adv-x="1228" d="M119 492l10 61l21 20h942l20 -20l-10 -61l-21 -21h-942zM461 123l28 164l21 20h125l20 -20l-28 -164l-21 -21h-125zM573 758l29 164l21 20h125l20 -20l-29 -164l-20 -21h-125z" />
<glyph unicode="&#xf8;" horiz-adv-x="1064" d="M-43 41l8 39l119 102l2 17q-37 86 -37 200q0 162 63.5 307.5t194.5 241.5t301 96q201 0 312 -122h18l70 61l41 21h34l23 -21l-8 -39l-115 -98l-4 -21q37 -86 37 -200q0 -162 -63.5 -307.5t-194.5 -241.5t-301 -96q-205 0 -312 122h-18l-72 -61l-41 -21h-37zM174 399 q0 -63 12 -112h19l618 536l4 19q-76 100 -219 100q-131 0 -232.5 -83t-151.5 -206t-50 -254zM236 182q76 -100 221 -100q131 0 232.5 83t151.5 206t50 254q0 53 -14 114h-17l-620 -538z" />
<glyph unicode="&#xf9;" horiz-adv-x="1044" d="M68 285q0 41 8 84l112 635l21 20h84l20 -20l-112 -635q-8 -43 -8 -84q0 -203 202 -203q164 0 261.5 97t127.5 272l99 553l20 20h84l21 -20l-174 -984l-21 -20h-61l-21 20v119h-20q-125 -160 -334 -159q-147 0 -228 80t-81 225zM485 1372l7 41l20 21h55l41 -21l148 -215 l-6 -31l-21 -20h-20l-41 20z" />
<glyph unicode="&#xfa;" horiz-adv-x="1044" d="M68 285q0 41 8 84l112 635l21 20h84l20 -20l-112 -635q-8 -43 -8 -84q0 -203 202 -203q164 0 261.5 97t127.5 272l99 553l20 20h84l21 -20l-174 -984l-21 -20h-61l-21 20v119h-20q-125 -160 -334 -159q-147 0 -228 80t-81 225zM494 1167l6 31l231 215l41 21h76l20 -21 l-6 -41l-262 -205l-41 -20h-45z" />
<glyph unicode="&#xfb;" horiz-adv-x="1044" d="M68 285q0 41 8 84l112 635l21 20h84l20 -20l-112 -635q-8 -43 -8 -84q0 -203 202 -203q164 0 261.5 97t127.5 272l99 553l20 20h84l21 -20l-174 -984l-21 -20h-61l-21 20v119h-20q-125 -160 -334 -159q-147 0 -228 80t-81 225zM340 1167l8 41l240 205l41 21h82l41 -21 l170 -205l-9 -41l-20 -20h-12l-41 20l-160 144h-41l-207 -144l-41 -20h-31z" />
<glyph unicode="&#xfc;" horiz-adv-x="1044" d="M68 285q0 41 8 84l112 635l21 20h84l20 -20l-112 -635q-8 -43 -8 -84q0 -203 202 -203q164 0 261.5 97t127.5 272l99 553l20 20h84l21 -20l-174 -984l-21 -20h-61l-21 20v119h-20q-125 -160 -334 -159q-147 0 -228 80t-81 225zM387 1208l21 123l20 21h104l21 -21 l-21 -123l-20 -20h-104zM735 1208l21 123l20 21h105l20 -21l-20 -123l-21 -20h-104z" />
<glyph unicode="&#xfd;" horiz-adv-x="962" d="M2 -287l10 62l21 20h45q90 0 140 44t93 128l8 33l-184 942l10 62l21 20h55l21 -20l159 -850h21l455 850l20 20h72l20 -20l-10 -62l-510 -942q-92 -170 -171 -238.5t-220 -68.5h-55zM494 1167l6 31l231 215l41 21h76l20 -21l-6 -41l-262 -205l-41 -20h-45z" />
<glyph unicode="&#xfe;" horiz-adv-x="1105" d="M-37 -389l318 1802l20 21h84l21 -21l-95 -532h21q111 164 334 163q182 0 277 -109.5t95 -287.5q0 -117 -32.5 -230.5t-95 -214t-170 -161.5t-242.5 -61q-127 0 -200 47t-95 116h-21l-94 -532l-20 -21h-84zM233 375q0 -143 69 -218t196 -75q135 0 233 89t140 214t42 262 q0 295 -264 295q-135 0 -233.5 -89t-140.5 -214t-42 -264z" />
<glyph unicode="&#xff;" horiz-adv-x="962" d="M2 -287l10 62l21 20h45q90 0 140 44t93 128l8 33l-184 942l10 62l21 20h55l21 -20l159 -850h21l455 850l20 20h72l20 -20l-10 -62l-510 -942q-92 -170 -171 -238.5t-220 -68.5h-55zM367 1208l20 123l21 21h104l20 -21l-20 -123l-20 -20h-105zM694 1208l21 123l20 21h105 l20 -21l-20 -123l-21 -20h-104z" />
<glyph unicode="&#x152;" horiz-adv-x="1986" d="M96 522q0 129 27 257t84 251t140 216t206 150.5t270 57.5q252 0 359 -154h20l21 113l24 21h824l20 -21l-10 -61l-21 -21h-712l-21 -20l-90 -512l20 -21h658l20 -20l-12 -62l-20 -20h-670l-21 -21l-94 -532l21 -21h698l21 -20l-13 -62l-20 -20h-830l-18 20l16 93h-20 q-131 -133 -373 -133q-238 0 -371 141t-133 401zM221 522q0 -209 96.5 -324.5t282.5 -115.5q172 0 284.5 71.5t147.5 174.5l137 778q0 102 -87 174t-259 72q-119 0 -220 -51.5t-171 -135.5t-118 -192.5t-70.5 -223t-22.5 -227.5z" />
<glyph unicode="&#x153;" horiz-adv-x="1822" d="M49 399q0 162 63.5 307.5t194.5 241.5t301 96q260 0 361 -192h20q137 193 393 192q186 0 291 -104t105 -276q0 -72 -23 -172l-20 -21h-727l-21 -20q-4 -37 -4 -60q0 -78 17.5 -140.5t81 -115.5t169.5 -53q217 0 320 205l20 20h84l21 -20q-18 -53 -47 -101.5t-79 -97.5 t-132 -78.5t-187 -29.5q-266 0 -354 213h-20q-156 -213 -420 -213q-195 0 -301.5 110t-106.5 309zM174 399q0 -147 76 -232t207 -85t232.5 83t151.5 206t50 254q0 147 -76 232t-207 85t-232.5 -83t-151.5 -206t-50 -254zM1014 594l20 -21h594l21 21q6 33 6 70 q0 115 -64.5 196.5t-208.5 81.5q-88 0 -157.5 -32.5t-110.5 -88t-65.5 -112t-34.5 -115.5z" />
<glyph unicode="&#x178;" horiz-adv-x="1146" d="M209 1352l10 61l21 21h51l20 -21l281 -676h20l518 676l41 21h52l20 -21l-10 -61l-582 -758l-102 -574l-21 -20h-84l-20 20l102 574zM522 1618l21 123l20 20h105l20 -20l-20 -123l-21 -21h-104zM870 1618l21 123l20 20h105l20 -20l-20 -123l-21 -21h-104z" />
<glyph unicode="&#x2c6;" horiz-adv-x="1024" d="M340 1167l8 41l240 205l41 21h82l41 -21l170 -205l-9 -41l-20 -20h-12l-41 20l-160 144h-41l-207 -144l-41 -20h-31z" />
<glyph unicode="&#x2dc;" horiz-adv-x="1024" d="M340 1167q31 184 184 185q61 0 107.5 -31t81.5 -61.5t67 -30.5q61 0 76 82l21 20h41l20 -20q-33 -184 -186 -185q-61 0 -107.5 31t-80.5 61.5t-66 30.5q-61 0 -76 -82l-21 -20h-41z" />
<glyph unicode="&#x2013;" horiz-adv-x="1269" d="M119 492l10 61l21 20h983l20 -20l-10 -61l-21 -21h-983z" />
<glyph unicode="&#x2014;" horiz-adv-x="2293" d="M119 492l10 61l21 20h2007l20 -20l-10 -61l-21 -21h-2007z" />
<glyph unicode="&#x2018;" horiz-adv-x="491" d="M238 1065l32 184l35 66l96 98l41 21h50l-3 -21l-104 -123l-4 -20l14 -21h17l20 -20l-29 -164l-20 -21h-125z" />
<glyph unicode="&#x2019;" horiz-adv-x="491" d="M252 1044l2 21l104 123l4 20l-14 21h-16l-21 20l29 164l20 21h125l21 -21l-33 -184l-35 -66l-96 -98l-41 -21h-49z" />
<glyph unicode="&#x201a;" horiz-adv-x="491" d="M16 -184l2 20l105 123l4 21l-14 20h-17l-20 20l28 164l21 21h125l20 -21l-32 -184l-35 -66l-97 -98l-40 -20h-50z" />
<glyph unicode="&#x201c;" horiz-adv-x="819" d="M238 1065l32 184l35 66l96 98l41 21h50l-3 -21l-104 -123l-4 -20l14 -21h17l20 -20l-29 -164l-20 -21h-125zM565 1065l33 184l35 66l96 98l41 21h49l-2 -21l-104 -123l-4 -20l14 -21h16l21 -20l-29 -164l-20 -21h-125z" />
<glyph unicode="&#x201d;" horiz-adv-x="819" d="M252 1044l2 21l104 123l4 20l-14 21h-16l-21 20l29 164l20 21h125l21 -21l-33 -184l-35 -66l-96 -98l-41 -21h-49zM580 1044l2 21l104 123l4 20l-14 21h-17l-20 20l29 164l20 21h125l21 -21l-33 -184l-35 -66l-96 -98l-41 -21h-49z" />
<glyph unicode="&#x201e;" horiz-adv-x="819" d="M16 -184l2 20l105 123l4 21l-14 20h-17l-20 20l28 164l21 21h125l20 -21l-32 -184l-35 -66l-97 -98l-40 -20h-50zM344 -184l2 20l105 123l4 21l-15 20h-16l-21 20l29 164l21 21h125l20 -21l-33 -184l-35 -66l-96 -98l-41 -20h-49z" />
<glyph unicode="&#x2022;" horiz-adv-x="798" d="M246 537l4 20l168 119h20l119 -168l-4 -21l-168 -118h-20z" />
<glyph unicode="&#x2026;" horiz-adv-x="1228" d="M76 20l28 164l21 21h125l20 -21l-28 -164l-21 -20h-125zM444 20l29 164l21 21h124l21 -21l-29 -164l-20 -20h-125zM813 20l29 164l20 21h125l21 -21l-29 -164l-21 -20h-124z" />
<glyph unicode="&#x2039;" horiz-adv-x="819" d="M158 483l14 82l29 41l393 336l41 21h76l20 -21l-8 -41l-434 -369l-6 -40l303 -369l-6 -41l-21 -21h-51l-41 21l-295 360z" />
<glyph unicode="&#x203a;" horiz-adv-x="819" d="M88 82l8 41l434 369l7 40l-304 369l7 41l20 21h51l41 -21l295 -360l15 -41l-15 -82l-29 -41l-393 -336l-41 -21h-75z" />
<glyph unicode="&#x20ac;" horiz-adv-x="1413" d="M47 553l10 61l21 21h147l21 20l22 123l-20 21h-137l-17 20l10 62l21 20h149l21 21q18 70 46 134t81 140t121.5 130t173 91t229.5 37q211 0 343 -103.5t132 -326.5l-20 -20h-84l-21 20q-2 328 -350 328q-213 0 -346 -127t-180 -303l20 -21h525l20 -20l-10 -62l-25 -20 h-536l-21 -21l-22 -125l20 -18h445l20 -21l-10 -61l-25 -21h-452l-21 -20q-2 -20 -2 -45q0 -160 94.5 -272.5t282.5 -112.5q346 0 463 328l20 20h86l21 -20q-135 -430 -590 -430q-135 0 -237.5 46t-158 121.5t-81 155.5t-25.5 164l2 45l-20 20h-140z" />
<glyph unicode="&#x2122;" horiz-adv-x="1699" d="M213 1372l6 41l21 21h555l20 -21l-6 -41l-21 -20h-213l-20 -21l-109 -614l-20 -21h-64l-20 21l109 614l-21 21h-197zM829 717l123 696l21 21h76l20 -21l145 -573h21l346 573l21 21h92l20 -21l-123 -696l-20 -21h-64l-20 21l84 471h-21l-288 -471l-21 -21h-61l-21 21 l-121 471h-20l-84 -471l-21 -21h-63z" />
<glyph unicode="&#xe000;" horiz-adv-x="1025" d="M0 1025h1025v-1025h-1025v1025z" />
<glyph unicode="&#xfb01;" horiz-adv-x="1083" d="M137 942l10 62l21 20h170l20 20l15 82q41 225 270 226h156l20 -21l-10 -61l-21 -21h-145q-121 0 -145 -123l-15 -82l21 -20h524l21 -20l-175 -984l-20 -20h-84l-20 20l155 881l-20 21h-406l-20 -21l-156 -881l-20 -20h-84l-21 20l156 881l-21 21h-155zM961 1208l20 123 l20 21h84l21 -21l-21 -123l-20 -20h-84z" />
<glyph unicode="&#xfb02;" horiz-adv-x="1083" d="M137 942l10 62l21 20h170l20 20l15 82q41 225 270 226h156l20 -21l-10 -61l-21 -21h-145q-121 0 -145 -123l-15 -82l21 -20h407l21 20l63 369l21 21h84l20 -21l-246 -1393l-20 -20h-84l-20 20l157 881l-20 21h-408l-20 -21l-156 -881l-20 -20h-84l-21 20l156 881l-21 21 h-155z" />
<glyph unicode="&#xfb03;" horiz-adv-x="1656" d="M137 942l10 62l21 20h170l20 20l15 82q41 225 270 226h156l20 -21l-10 -61l-21 -21h-145q-121 0 -145 -123l-15 -82l21 -20h407l21 20l14 82q41 225 271 226h155l21 -21l-11 -61l-20 -21h-145q-121 0 -146 -123l-14 -82l20 -20h525l20 -20l-174 -984l-21 -20h-84l-20 20 l156 881l-21 21h-405l-21 -21l-155 -881l-21 -20h-84l-20 20l155 881l-20 21h-408l-20 -21l-156 -881l-20 -20h-84l-21 20l156 881l-21 21h-155zM1534 1208l20 123l21 21h84l20 -21l-20 -123l-21 -20h-84z" />
<glyph unicode="&#xfb04;" horiz-adv-x="1656" d="M137 942l10 62l21 20h170l20 20l15 82q41 225 270 226h156l20 -21l-10 -61l-21 -21h-145q-121 0 -145 -123l-15 -82l21 -20h407l21 20l14 82q41 225 271 226h155l21 -21l-11 -61l-20 -21h-145q-121 0 -146 -123l-14 -82l20 -20h408l20 20l64 369l20 21h84l21 -21 l-246 -1393l-21 -20h-84l-20 20l158 881l-21 21h-407l-21 -21l-155 -881l-21 -20h-84l-20 20l155 881l-20 21h-408l-20 -21l-156 -881l-20 -20h-84l-21 20l156 881l-21 21h-155z" />
</font>
</defs>
</svg>
